# Blender 4.3.2
# www.blender.org
mtllib barrel.mtl
o Barrel
v 0.000000 -0.833938 -0.611704
v -0.146390 -0.833938 -0.593930
v -0.284274 -0.833938 -0.541638
v -0.405636 -0.833938 -0.457868
v -0.503424 -0.833938 -0.347488
v -0.571954 -0.833938 -0.216914
v -0.607246 -0.833938 -0.073732
v -0.607246 -0.833938 0.073734
v -0.571954 -0.833938 0.216914
v -0.503424 -0.833938 0.347488
v -0.405636 -0.833938 0.457868
v -0.284274 -0.833938 0.541638
v -0.146390 -0.833938 0.593930
v 0.000000 -0.833938 0.611706
v 0.146390 -0.833938 0.593930
v 0.284274 -0.833938 0.541638
v 0.405636 -0.833938 0.457868
v 0.503424 -0.833938 0.347488
v 0.571954 -0.833938 0.216914
v 0.607246 -0.833938 0.073732
v 0.607246 -0.833938 -0.073734
v 0.571954 -0.833938 -0.216914
v 0.503424 -0.833938 -0.347488
v 0.405634 -0.833938 -0.457868
v 0.284272 -0.833938 -0.541638
v 0.146390 -0.833938 -0.593930
v 0.000000 0.892864 -0.611704
v -0.146390 0.892864 -0.593930
v -0.284274 0.892864 -0.541638
v -0.405636 0.892864 -0.457866
v -0.503424 0.892864 -0.347488
v -0.571954 0.892864 -0.216912
v -0.607246 0.892864 -0.073732
v -0.607246 0.892864 0.073734
v -0.571954 0.892864 0.216914
v -0.503424 0.892864 0.347488
v -0.405636 0.892864 0.457868
v -0.284274 0.892864 0.541638
v -0.146390 0.892864 0.593932
v 0.000000 0.892864 0.611706
v 0.146390 0.892864 0.593930
v 0.284274 0.892864 0.541638
v 0.405636 0.892864 0.457868
v 0.503424 0.892864 0.347488
v 0.571954 0.892864 0.216914
v 0.607246 0.892864 0.073734
v 0.607246 0.892864 -0.073732
v 0.571954 0.892864 -0.216914
v 0.503424 0.892864 -0.347488
v 0.405634 0.892864 -0.457868
v 0.284272 0.892864 -0.541638
v 0.146390 0.892864 -0.593930
v -0.607246 0.346994 0.073734
v -0.607246 0.299274 0.073734
v -0.607246 -0.248870 0.073734
v -0.607246 -0.297254 0.073734
v -0.571954 -0.297254 0.216914
v -0.571954 -0.248870 0.216914
v -0.571954 0.299274 0.216914
v -0.571954 0.346994 0.216914
v 0.503424 0.346994 -0.347488
v 0.503424 0.299274 -0.347488
v 0.503424 -0.248870 -0.347488
v 0.503424 -0.297254 -0.347488
v 0.405634 -0.297254 -0.457868
v 0.405634 -0.248870 -0.457868
v 0.405634 0.299274 -0.457868
v 0.405634 0.346994 -0.457868
v 0.000000 0.346994 -0.611704
v 0.000000 0.299274 -0.611704
v 0.000000 -0.248870 -0.611704
v 0.000000 -0.297254 -0.611704
v -0.146390 -0.297254 -0.593930
v -0.146390 -0.248870 -0.593930
v -0.146390 0.299274 -0.593930
v -0.146390 0.346994 -0.593930
v 0.284274 0.346992 0.541638
v 0.284274 0.299274 0.541638
v 0.284274 -0.248870 0.541638
v 0.284274 -0.297254 0.541638
v 0.405636 -0.297254 0.457868
v 0.405636 -0.248870 0.457868
v 0.405636 0.299274 0.457868
v 0.405636 0.346992 0.457868
v -0.503424 -0.297254 0.347488
v -0.503424 -0.248870 0.347488
v -0.503424 0.299274 0.347488
v -0.503424 0.346992 0.347488
v 0.284272 -0.297254 -0.541638
v 0.284272 -0.248870 -0.541638
v 0.284272 0.299274 -0.541638
v 0.284272 0.346994 -0.541638
v -0.284274 -0.297254 -0.541638
v -0.284274 -0.248870 -0.541638
v -0.284274 0.299274 -0.541638
v -0.284274 0.346994 -0.541638
v 0.503424 -0.297254 0.347488
v 0.503424 -0.248870 0.347488
v 0.503424 0.299274 0.347488
v 0.503424 0.346992 0.347488
v -0.405636 -0.297254 0.457868
v -0.405636 -0.248870 0.457868
v -0.405636 0.299274 0.457868
v -0.405636 0.346992 0.457868
v 0.146390 -0.297254 -0.593930
v 0.146390 -0.248870 -0.593930
v 0.146390 0.299274 -0.593930
v 0.146390 0.346994 -0.593930
v -0.405636 -0.297254 -0.457868
v -0.405636 -0.248870 -0.457868
v -0.405636 0.299274 -0.457868
v -0.405636 0.346994 -0.457868
v 0.571954 -0.297254 0.216914
v 0.571954 -0.248870 0.216914
v 0.571954 0.299274 0.216914
v 0.571954 0.346994 0.216914
v -0.284274 -0.297254 0.541638
v -0.284274 -0.248870 0.541638
v -0.284274 0.299274 0.541638
v -0.284274 0.346992 0.541638
v -0.503424 -0.297254 -0.347488
v -0.503424 -0.248870 -0.347488
v -0.503424 0.299274 -0.347488
v -0.503424 0.346994 -0.347488
v 0.607246 -0.297254 0.073732
v 0.607246 -0.248870 0.073732
v 0.607246 0.299274 0.073734
v 0.607246 0.346994 0.073734
v -0.146390 -0.297254 0.593930
v -0.146390 -0.248870 0.593930
v -0.146390 0.299274 0.593930
v -0.146390 0.346992 0.593930
v -0.571954 -0.297254 -0.216914
v -0.571954 -0.248870 -0.216914
v -0.571954 0.299274 -0.216912
v -0.571954 0.346994 -0.216912
v 0.607246 -0.297254 -0.073734
v 0.607246 -0.248870 -0.073734
v 0.607246 0.299274 -0.073732
v 0.607246 0.346994 -0.073732
v 0.000000 -0.297254 0.611706
v 0.000000 -0.248870 0.611706
v 0.000000 0.299274 0.611706
v 0.000000 0.346992 0.611706
v -0.607246 -0.297254 -0.073732
v -0.607246 -0.248870 -0.073732
v -0.607246 0.299274 -0.073732
v -0.607246 0.346994 -0.073732
v 0.571954 -0.297254 -0.216914
v 0.571954 -0.248870 -0.216914
v 0.571954 0.299274 -0.216914
v 0.571954 0.346994 -0.216914
v 0.146390 -0.297254 0.593930
v 0.146390 -0.248870 0.593930
v 0.146390 0.299274 0.593930
v 0.146390 0.346992 0.593930
v -0.626398 0.339162 0.076060
v -0.626398 0.307104 0.076060
v -0.626396 -0.257034 0.076058
v -0.626396 -0.289090 0.076058
v -0.589994 -0.289090 0.223756
v -0.589994 -0.257034 0.223756
v -0.589994 0.307104 0.223756
v -0.589994 0.339162 0.223756
v 0.519300 0.339162 -0.358448
v 0.519300 0.307106 -0.358448
v 0.519300 -0.257034 -0.358448
v 0.519300 -0.289090 -0.358448
v 0.418428 -0.289090 -0.472308
v 0.418428 -0.257034 -0.472308
v 0.418428 0.307106 -0.472308
v 0.418428 0.339162 -0.472308
v 0.000000 0.339162 -0.630996
v 0.000000 0.307106 -0.630996
v 0.000000 -0.257034 -0.630998
v 0.000000 -0.289090 -0.630998
v -0.151008 -0.289090 -0.612662
v -0.151008 -0.257034 -0.612662
v -0.151008 0.307106 -0.612662
v -0.151008 0.339162 -0.612662
v 0.293240 0.339162 0.558722
v 0.293240 0.307104 0.558722
v 0.293240 -0.257034 0.558722
v 0.293240 -0.289090 0.558722
v 0.418430 -0.289090 0.472308
v 0.418430 -0.257034 0.472308
v 0.418430 0.307104 0.472310
v 0.418430 0.339162 0.472310
v -0.519300 -0.289090 0.358448
v -0.519300 -0.257034 0.358448
v -0.519300 0.307104 0.358448
v -0.519300 0.339162 0.358448
v 0.293238 -0.289090 -0.558720
v 0.293238 -0.257034 -0.558720
v 0.293238 0.307106 -0.558720
v 0.293238 0.339162 -0.558720
v -0.293240 -0.289090 -0.558720
v -0.293240 -0.257034 -0.558720
v -0.293240 0.307106 -0.558720
v -0.293240 0.339162 -0.558720
v 0.519302 -0.289090 0.358448
v 0.519302 -0.257034 0.358448
v 0.519302 0.307104 0.358448
v 0.519302 0.339162 0.358448
v -0.418428 -0.289090 0.472310
v -0.418428 -0.257034 0.472310
v -0.418428 0.307104 0.472310
v -0.418428 0.339162 0.472310
v 0.151006 -0.289090 -0.612662
v 0.151006 -0.257034 -0.612662
v 0.151006 0.307106 -0.612662
v 0.151006 0.339162 -0.612662
v -0.418428 -0.289090 -0.472308
v -0.418428 -0.257034 -0.472308
v -0.418428 0.307106 -0.472308
v -0.418428 0.339162 -0.472308
v 0.589994 -0.289090 0.223754
v 0.589994 -0.257034 0.223754
v 0.589994 0.307104 0.223756
v 0.589994 0.339162 0.223756
v -0.293240 -0.289090 0.558722
v -0.293240 -0.257034 0.558722
v -0.293240 0.307104 0.558722
v -0.293240 0.339162 0.558722
v -0.519300 -0.289090 -0.358448
v -0.519300 -0.257034 -0.358448
v -0.519300 0.307106 -0.358446
v -0.519300 0.339162 -0.358446
v 0.626398 -0.289090 0.076058
v 0.626398 -0.257034 0.076058
v 0.626398 0.307104 0.076058
v 0.626398 0.339162 0.076058
v -0.151008 -0.289090 0.612662
v -0.151008 -0.257034 0.612662
v -0.151008 0.307104 0.612662
v -0.151008 0.339162 0.612662
v -0.589994 -0.289090 -0.223754
v -0.589994 -0.257034 -0.223754
v -0.589994 0.307104 -0.223754
v -0.589994 0.339162 -0.223754
v 0.626398 -0.289090 -0.076058
v 0.626398 -0.257034 -0.076058
v 0.626398 0.307104 -0.076058
v 0.626398 0.339162 -0.076058
v 0.000000 -0.289090 0.630998
v 0.000000 -0.257034 0.630998
v 0.000000 0.307104 0.630998
v 0.000000 0.339162 0.630998
v -0.626396 -0.289090 -0.076058
v -0.626396 -0.257034 -0.076058
v -0.626398 0.307104 -0.076058
v -0.626398 0.339162 -0.076058
v 0.589992 -0.289090 -0.223756
v 0.589992 -0.257034 -0.223756
v 0.589992 0.307104 -0.223754
v 0.589992 0.339162 -0.223754
v 0.151008 -0.289090 0.612662
v 0.151008 -0.257034 0.612662
v 0.151008 0.307104 0.612662
v 0.151008 0.339162 0.612662
v 0.296772 0.323134 0.565452
v 0.152828 0.323134 0.620044
v 0.525556 0.323134 -0.362766
v 0.597100 0.323134 -0.226450
v -0.633944 0.323134 0.076976
v -0.633944 0.323134 -0.076974
v 0.000000 0.323134 0.638600
v 0.633944 0.323134 -0.076974
v -0.597100 0.323134 -0.226450
v -0.152826 0.323134 0.620044
v 0.633944 0.323134 0.076974
v -0.525556 0.323134 -0.362766
v -0.296772 0.323134 0.565452
v 0.597102 0.323134 0.226450
v -0.423470 0.323134 -0.477998
v 0.000000 0.323134 -0.638598
v 0.152826 0.323134 -0.620042
v -0.423470 0.323134 0.478000
v 0.525558 0.323134 0.362766
v -0.296772 0.323134 -0.565450
v 0.296772 0.323134 -0.565452
v -0.525556 0.323134 0.362766
v 0.423470 0.323134 0.477998
v -0.152826 0.323134 -0.620042
v 0.423470 0.323134 -0.477998
v -0.597100 0.323134 0.226452
v 0.152828 -0.273062 0.620044
v 0.296772 -0.273062 0.565452
v 0.597100 -0.273062 -0.226450
v 0.525556 -0.273062 -0.362766
v -0.633944 -0.273062 -0.076974
v -0.633944 -0.273062 0.076976
v 0.000000 -0.273062 0.638600
v 0.633944 -0.273062 -0.076974
v -0.597100 -0.273062 -0.226450
v -0.152826 -0.273062 0.620044
v 0.633944 -0.273062 0.076974
v -0.525556 -0.273062 -0.362766
v -0.296772 -0.273062 0.565452
v 0.597102 -0.273062 0.226450
v -0.423470 -0.273062 -0.477998
v 0.152826 -0.273062 -0.620042
v 0.000000 -0.273062 -0.638598
v -0.423470 -0.273062 0.477998
v 0.525558 -0.273062 0.362766
v -0.296772 -0.273062 -0.565452
v 0.296772 -0.273062 -0.565452
v -0.525556 -0.273062 0.362766
v 0.423470 -0.273062 0.477998
v -0.152826 -0.273062 -0.620042
v 0.423470 -0.273062 -0.477998
v -0.597100 -0.273062 0.226450
v 0.000000 0.918878 -0.633150
v -0.151522 0.918878 -0.614752
v -0.294240 0.918878 -0.560626
v -0.419856 0.918878 -0.473920
v -0.521072 0.918878 -0.359670
v -0.592006 0.918878 -0.224518
v -0.628534 0.918878 -0.076316
v -0.628534 0.918878 0.076318
v -0.592006 0.918878 0.224520
v -0.521072 0.918878 0.359672
v -0.419856 0.918878 0.473922
v -0.294240 0.918878 0.560628
v -0.151522 0.918878 0.614754
v 0.000000 0.918878 0.633152
v 0.151524 0.918878 0.614754
v 0.294240 0.918878 0.560628
v 0.419856 0.918878 0.473920
v 0.521074 0.918878 0.359672
v 0.592006 0.918878 0.224518
v 0.628534 0.918878 0.076318
v 0.628534 0.918878 -0.076318
v 0.592006 0.918878 -0.224518
v 0.521072 0.918878 -0.359670
v 0.419856 0.918878 -0.473920
v 0.294240 0.918878 -0.560626
v 0.151522 0.918878 -0.614752
v 0.000000 0.935276 -0.619524
v -0.148262 0.935276 -0.601520
v -0.287908 0.935276 -0.548560
v -0.410820 0.935276 -0.463720
v -0.509858 0.935276 -0.351928
v -0.579266 0.935276 -0.219686
v -0.615008 0.935276 -0.074674
v -0.615008 0.935276 0.074676
v -0.579266 0.935276 0.219688
v -0.509858 0.935276 0.351930
v -0.410820 0.935276 0.463722
v -0.287908 0.935276 0.548562
v -0.148262 0.935276 0.601524
v 0.000000 0.935276 0.619526
v 0.148262 0.935276 0.601522
v 0.287908 0.935276 0.548562
v 0.410820 0.935276 0.463722
v 0.509858 0.935276 0.351930
v 0.579266 0.935276 0.219686
v 0.615008 0.935276 0.074676
v 0.615008 0.935276 -0.074676
v 0.579264 0.935276 -0.219686
v 0.509858 0.935276 -0.351930
v 0.410820 0.935276 -0.463720
v 0.287906 0.935276 -0.548560
v 0.148262 0.935276 -0.601522
v 0.000000 0.877130 -0.574848
v -0.137570 0.877130 -0.558144
v -0.267146 0.877130 -0.509002
v -0.381196 0.877130 -0.430280
v -0.473092 0.877130 -0.326550
v -0.537492 0.877130 -0.203844
v -0.570658 0.877130 -0.069290
v -0.570658 0.877130 0.069292
v -0.537492 0.877130 0.203846
v -0.473092 0.877130 0.326552
v -0.381196 0.877130 0.430282
v -0.267146 0.877130 0.509004
v -0.137570 0.877130 0.558146
v 0.000000 0.877130 0.574850
v 0.137570 0.877130 0.558146
v 0.267146 0.877130 0.509004
v 0.381196 0.877130 0.430282
v 0.473092 0.877130 0.326552
v 0.537494 0.877130 0.203844
v 0.570658 0.877130 0.069290
v 0.570658 0.877130 -0.069290
v 0.537492 0.877130 -0.203844
v 0.473090 0.877130 -0.326550
v 0.381194 0.877130 -0.430280
v 0.267144 0.877130 -0.509002
v 0.137570 0.877130 -0.558144
v 0.000000 0.935198 -0.583542
v 0.000000 0.926226 -0.574848
v -0.137570 0.926226 -0.558144
v -0.139652 0.935198 -0.566586
v -0.267146 0.926226 -0.509002
v -0.271186 0.935198 -0.516702
v -0.381196 0.926226 -0.430280
v -0.386962 0.935198 -0.436788
v -0.473092 0.926226 -0.326550
v -0.480248 0.935198 -0.331490
v -0.537492 0.926226 -0.203844
v -0.545622 0.935198 -0.206926
v -0.570658 0.926226 -0.069290
v -0.579290 0.935198 -0.070338
v -0.570658 0.926226 0.069292
v -0.579290 0.935198 0.070340
v -0.537492 0.926226 0.203846
v -0.545622 0.935198 0.206928
v -0.473092 0.926226 0.326552
v -0.480248 0.935198 0.331492
v -0.381196 0.926226 0.430282
v -0.386962 0.935198 0.436790
v -0.267146 0.926226 0.509004
v -0.271186 0.935198 0.516704
v -0.137570 0.926226 0.558146
v -0.139652 0.935198 0.566588
v 0.000000 0.926224 0.574850
v 0.000000 0.935196 0.583544
v 0.137570 0.926226 0.558146
v 0.139652 0.935198 0.566588
v 0.267146 0.926226 0.509004
v 0.271186 0.935198 0.516704
v 0.381196 0.926226 0.430282
v 0.386962 0.935198 0.436790
v 0.473092 0.926226 0.326552
v 0.480248 0.935198 0.331492
v 0.537494 0.926226 0.203844
v 0.545624 0.935198 0.206928
v 0.570658 0.926226 0.069290
v 0.579290 0.935198 0.070338
v 0.570658 0.926226 -0.069290
v 0.579290 0.935198 -0.070338
v 0.537492 0.926226 -0.203844
v 0.545622 0.935198 -0.206928
v 0.473090 0.926226 -0.326550
v 0.480246 0.935198 -0.331490
v 0.381194 0.926226 -0.430280
v 0.386960 0.935198 -0.436788
v 0.267144 0.926226 -0.509002
v 0.271186 0.935198 -0.516702
v 0.137570 0.926226 -0.558144
v 0.139650 0.935198 -0.566586
v 0.000000 0.877130 -0.000000
v 0.000000 -0.920000 -0.592886
v -0.141886 -0.920000 -0.575658
v -0.275528 -0.920000 -0.524974
v -0.393156 -0.920000 -0.443780
v -0.487936 -0.920000 -0.336798
v -0.554358 -0.920000 -0.210240
v -0.588562 -0.920000 -0.071464
v -0.588562 -0.920000 0.071464
v -0.554358 -0.920000 0.210240
v -0.487936 -0.920000 0.336798
v -0.393156 -0.920000 0.443782
v -0.275528 -0.920000 0.524974
v -0.141886 -0.920000 0.575658
v 0.000000 -0.920000 0.592886
v 0.141888 -0.920000 0.575658
v 0.275528 -0.920000 0.524974
v 0.393156 -0.920000 0.443782
v 0.487936 -0.920000 0.336798
v 0.554358 -0.920000 0.210240
v 0.588562 -0.920000 0.071464
v 0.588562 -0.920000 -0.071464
v 0.554358 -0.920000 -0.210240
v 0.487934 -0.920000 -0.336798
v 0.393156 -0.920000 -0.443782
v 0.275528 -0.920000 -0.524974
v 0.141886 -0.920000 -0.575658
v 0.000000 -0.886720 -0.592886
v -0.141886 -0.886720 -0.575658
v -0.275528 -0.886720 -0.524974
v -0.393156 -0.886720 -0.443780
v -0.487936 -0.886720 -0.336798
v -0.554358 -0.886720 -0.210240
v -0.588562 -0.886720 -0.071464
v -0.588562 -0.886720 0.071464
v -0.554358 -0.886720 0.210240
v -0.487936 -0.886720 0.336798
v -0.393156 -0.886720 0.443782
v -0.275528 -0.886720 0.524974
v -0.141886 -0.886722 0.575658
v 0.000000 -0.886722 0.592886
v 0.141888 -0.886722 0.575658
v 0.275528 -0.886720 0.524974
v 0.393156 -0.886720 0.443782
v 0.487936 -0.886720 0.336798
v 0.554358 -0.886720 0.210240
v 0.588562 -0.886720 0.071464
v 0.588562 -0.886720 -0.071464
v 0.554358 -0.886720 -0.210240
v 0.487934 -0.886720 -0.336798
v 0.393156 -0.886720 -0.443782
v 0.275528 -0.886720 -0.524974
v 0.141886 -0.886720 -0.575658
v 0.000000 -0.886720 -0.000000
v -0.149258 -0.849952 -0.605568
v 0.000000 -0.849952 -0.623690
v -0.289844 -0.849952 -0.552250
v -0.413584 -0.849952 -0.466840
v -0.513288 -0.849952 -0.354296
v -0.583162 -0.849952 -0.221164
v -0.619144 -0.849952 -0.075178
v -0.619144 -0.849952 0.075178
v -0.583162 -0.849952 0.221164
v -0.513288 -0.849952 0.354298
v -0.413584 -0.849952 0.466840
v -0.289844 -0.849952 0.552252
v -0.149258 -0.849952 0.605568
v 0.000000 -0.849952 0.623692
v 0.149260 -0.849952 0.605568
v 0.289844 -0.849952 0.552252
v 0.413584 -0.849952 0.466840
v 0.513288 -0.849952 0.354296
v 0.583162 -0.849952 0.221164
v 0.619144 -0.849952 0.075178
v 0.619144 -0.849952 -0.075178
v 0.583162 -0.849952 -0.221164
v 0.513288 -0.849952 -0.354298
v 0.413584 -0.849952 -0.466840
v 0.289842 -0.849952 -0.552252
v 0.149258 -0.849952 -0.605568
v -0.149258 -0.920000 -0.605568
v 0.000000 -0.920000 -0.623690
v -0.289844 -0.920000 -0.552250
v -0.413584 -0.920000 -0.466840
v -0.513288 -0.920000 -0.354296
v -0.583162 -0.920000 -0.221164
v -0.619144 -0.920000 -0.075178
v -0.619144 -0.920000 0.075178
v -0.583162 -0.920000 0.221164
v -0.513288 -0.920000 0.354296
v -0.413584 -0.920000 0.466840
v -0.289844 -0.920000 0.552252
v -0.149258 -0.920000 0.605568
v 0.000000 -0.920000 0.623692
v 0.149260 -0.920000 0.605568
v 0.289844 -0.920000 0.552252
v 0.413584 -0.920000 0.466840
v 0.513288 -0.920000 0.354296
v 0.583162 -0.920000 0.221164
v 0.619144 -0.920000 0.075178
v 0.619144 -0.920000 -0.075178
v 0.583162 -0.920000 -0.221164
v 0.513288 -0.920000 -0.354298
v 0.413584 -0.920000 -0.466840
v 0.289842 -0.920000 -0.552252
v 0.149258 -0.920000 -0.605568
v 0.419298 0.877130 -0.086622
v 0.385980 0.877130 -0.079994
v 0.357734 0.877130 -0.061122
v 0.338862 0.877130 -0.032876
v 0.332234 0.877130 0.000442
v 0.338862 0.877130 0.033760
v 0.357734 0.877130 0.062006
v 0.385980 0.877130 0.080880
v 0.419298 0.877130 0.087508
v 0.452616 0.877130 0.080880
v 0.480862 0.877130 0.062006
v 0.499736 0.877130 0.033760
v 0.506364 0.877130 0.000442
v 0.499736 0.877130 -0.032876
v 0.480862 0.877130 -0.061122
v 0.452616 0.877130 -0.079994
v 0.419298 0.896768 -0.086622
v 0.385980 0.896768 -0.079994
v 0.357734 0.896768 -0.061122
v 0.338862 0.896768 -0.032876
v 0.338862 0.896768 0.033760
v 0.357734 0.896768 0.062006
v 0.385980 0.896768 0.080880
v 0.419298 0.896768 0.087508
v 0.452616 0.896768 0.080880
v 0.480862 0.896768 0.062006
v 0.499736 0.896768 0.033760
v 0.506364 0.896768 0.000442
v 0.499736 0.896768 -0.032876
v 0.480862 0.896768 -0.061122
v 0.452616 0.896768 -0.079994
v 0.419180 0.902402 -0.079368
v 0.388630 0.902402 -0.073290
v 0.362730 0.902402 -0.055984
v 0.345424 0.902402 -0.030084
v 0.339348 0.902402 0.000466
v 0.345424 0.902402 0.031018
v 0.362730 0.902402 0.056918
v 0.388630 0.902402 0.074222
v 0.419180 0.902402 0.080300
v 0.449732 0.902402 0.074222
v 0.475632 0.902402 0.056918
v 0.492938 0.902402 0.031018
v 0.499014 0.902402 0.000466
v 0.492938 0.902402 -0.030084
v 0.475632 0.902402 -0.055984
v 0.449732 0.902402 -0.073290
v 0.418994 0.912710 -0.076014
v 0.389712 0.912710 -0.070190
v 0.364886 0.912710 -0.053602
v 0.348300 0.912710 -0.028778
v 0.342476 0.912710 0.000504
v 0.348300 0.912710 0.029786
v 0.364886 0.912710 0.054610
v 0.389712 0.912710 0.071196
v 0.418994 0.912710 0.077022
v 0.448276 0.912710 0.071196
v 0.473100 0.912710 0.054610
v 0.489686 0.912710 0.029786
v 0.495512 0.912710 0.000504
v 0.489686 0.912710 -0.028778
v 0.473100 0.912710 -0.053602
v 0.448276 0.912710 -0.070190
v 0.417788 0.912710 -0.064268
v 0.392908 0.912710 -0.059318
v 0.463756 0.912710 0.046714
v 0.482798 0.912710 0.000744
v 0.477850 0.912710 -0.024136
v 0.463756 0.912710 -0.045226
v 0.418192 0.897492 -0.062546
v 0.394002 0.897492 -0.057736
v 0.373496 0.897492 -0.044032
v 0.359794 0.897492 -0.023526
v 0.354982 0.897492 0.000662
v 0.359794 0.897492 0.024852
v 0.373496 0.897492 0.045358
v 0.394002 0.897492 0.059060
v 0.418192 0.897492 0.063872
v 0.442382 0.897492 0.059060
v 0.462888 0.897492 0.045358
v 0.476590 0.897492 0.024852
v 0.481402 0.897492 0.000662
v 0.476590 0.897492 -0.023526
v 0.462888 0.897492 -0.044032
v 0.442382 0.897492 -0.057736
v 0.418388 0.897492 0.000624
v 0.489890 0.915968 0.000542
v 0.484478 0.915968 -0.026662
v 0.353120 0.915968 0.027746
v 0.368532 0.915968 0.050810
v 0.469068 0.915968 -0.049726
v 0.391594 0.915968 0.066220
v 0.446004 0.915968 -0.065136
v 0.418800 0.915968 0.071632
v 0.418800 0.915968 -0.070548
v 0.391594 0.915968 -0.065136
v 0.446004 0.915968 0.066220
v 0.368532 0.915968 -0.049726
v 0.469068 0.915968 0.050810
v 0.353120 0.915968 -0.026662
v 0.484478 0.915968 0.027746
v 0.381798 0.908528 0.014600
v 0.378478 0.908528 0.000898
v 0.386216 0.897510 0.016320
v 0.382536 0.897510 -0.001976
v 0.371818 0.912710 -0.045226
v 0.357724 0.912710 -0.024136
v 0.477850 0.912710 0.025622
v 0.359326 0.912710 0.024560
v 0.371818 0.912710 0.046714
v 0.392908 0.912710 0.060806
v 0.442666 0.912710 -0.059318
v 0.417788 0.912710 0.065754
v 0.442666 0.912710 0.060806
v 0.381394 0.903678 -0.001308
v 0.385002 0.903678 0.015890
v 0.332234 0.896768 0.000442
v 0.354594 0.912710 0.000772
v 0.347710 0.915968 0.000542
v 0.380254 0.909926 0.008062
v 0.389072 0.897510 0.006176
v 0.384892 0.907166 0.006978
v 0.388110 0.902316 0.006366
v -0.143758 0.940948 -0.583246
v 0.000000 0.940948 -0.600702
v 0.143756 0.940948 -0.583246
v -0.279160 0.940946 -0.531894
v -0.398340 0.940946 -0.449632
v -0.494368 0.940946 -0.341238
v -0.561666 0.940946 -0.213012
v -0.596324 0.940946 -0.072406
v -0.596324 0.940946 0.072408
v -0.561666 0.940946 0.213014
v -0.494368 0.940946 0.341238
v -0.398340 0.940946 0.449634
v -0.279160 0.940946 0.531896
v -0.143758 0.940946 0.583248
v 0.000000 0.940946 0.600704
v 0.143758 0.940946 0.583248
v 0.279160 0.940946 0.531896
v 0.398340 0.940946 0.449634
v 0.494370 0.940946 0.341238
v 0.561668 0.940946 0.213012
v 0.596324 0.940946 0.072408
v 0.596322 0.940946 -0.072406
v 0.561666 0.940946 -0.213012
v 0.494368 0.940946 -0.341238
v 0.398340 0.940946 -0.449632
v 0.279160 0.940946 -0.531896
v 0.000000 0.904892 -0.631174
v 0.000000 0.895846 -0.623082
v -0.149114 0.895846 -0.604976
v -0.151050 0.904892 -0.612832
v -0.289562 0.895844 -0.551712
v -0.293322 0.904890 -0.558876
v -0.413180 0.895844 -0.466384
v -0.418546 0.904890 -0.472440
v -0.512788 0.895844 -0.353950
v -0.519446 0.904890 -0.358548
v -0.582592 0.895844 -0.220948
v -0.590158 0.904890 -0.223816
v -0.618540 0.895844 -0.075104
v -0.626572 0.904890 -0.076078
v -0.618540 0.895844 0.075106
v -0.626572 0.904890 0.076080
v -0.582592 0.895844 0.220950
v -0.590158 0.904890 0.223818
v -0.512788 0.895844 0.353952
v -0.519446 0.904890 0.358548
v -0.413180 0.895844 0.466386
v -0.418546 0.904890 0.472442
v -0.289562 0.895844 0.551714
v -0.293322 0.904890 0.558878
v -0.149114 0.895844 0.604978
v -0.151050 0.904890 0.612834
v 0.000000 0.895844 0.623084
v 0.000000 0.904890 0.631176
v 0.149114 0.895844 0.604978
v 0.151050 0.904890 0.612834
v 0.289562 0.895844 0.551714
v 0.293322 0.904890 0.558878
v 0.413180 0.895844 0.466386
v 0.418546 0.904890 0.472442
v 0.512788 0.895844 0.353952
v 0.519446 0.904890 0.358548
v 0.582594 0.895844 0.220948
v 0.590158 0.904890 0.223818
v 0.618540 0.895844 0.075104
v 0.626572 0.904890 0.076080
v 0.618540 0.895844 -0.075104
v 0.626572 0.904890 -0.076080
v 0.582592 0.895844 -0.220948
v 0.590158 0.904890 -0.223818
v 0.512788 0.895844 -0.353952
v 0.519446 0.904890 -0.358548
v 0.413180 0.895844 -0.466384
v 0.418546 0.904890 -0.472440
v 0.289560 0.895844 -0.551712
v 0.293320 0.904890 -0.558876
v 0.149112 0.895846 -0.604976
v 0.151050 0.904892 -0.612834
vn -0.9350 -0.0000 0.3546
vn -0.9927 -0.0000 0.1205
vn 0.6631 -0.0000 -0.7485
vn 0.8230 -0.0000 -0.5681
vn -0.2393 -0.0000 -0.9709
vn -0.0000 -0.0000 -1.0000
vn 0.6631 -0.0000 0.7485
vn 0.4647 -0.0000 0.8855
vn 0.9350 -0.0000 -0.3546
vn 0.2393 -0.0000 -0.9709
vn 0.2393 -0.0000 0.9709
vn -0.6631 -0.0000 0.7485
vn -0.8230 -0.0000 0.5681
vn 0.4647 -0.0000 -0.8855
vn -0.6631 -0.0000 -0.7485
vn -0.4647 -0.0000 -0.8855
vn 0.9350 -0.0000 0.3546
vn 0.8230 -0.0000 0.5681
vn -0.4647 -0.0000 0.8855
vn -0.8230 -0.0000 -0.5681
vn 0.9927 -0.0000 0.1205
vn -0.2393 -0.0000 0.9709
vn -0.9350 -0.0000 -0.3546
vn 0.9927 -0.0000 -0.1205
vn -0.0000 -0.0000 1.0000
vn -0.9927 -0.0000 -0.1205
vn 0.1677 -0.7134 0.6804
vn 0.0900 -0.9266 0.3651
vn 0.1748 -0.9266 0.3330
vn 0.3257 -0.7134 0.6205
vn 0.2494 -0.9266 0.2815
vn 0.4647 -0.7134 0.5245
vn 0.3279 0.7086 0.6248
vn 0.1811 0.9209 0.3451
vn 0.0933 0.9209 0.3784
vn 0.1689 0.7086 0.6851
vn 0.4679 0.7086 0.5282
vn 0.2584 0.9209 0.2917
vn 0.6552 -0.7134 -0.2485
vn 0.3517 -0.9266 -0.1334
vn 0.3096 -0.9266 -0.2137
vn 0.5767 -0.7134 -0.3981
vn 0.2494 -0.9266 -0.2816
vn 0.4647 -0.7134 -0.5245
vn 0.5807 0.7086 -0.4008
vn 0.3207 0.9209 -0.2214
vn 0.3644 0.9209 -0.1382
vn 0.6598 0.7086 -0.2502
vn 0.4679 0.7086 -0.5282
vn 0.2584 0.9209 -0.2917
vn -0.6957 -0.7134 -0.0845
vn -0.3733 -0.9266 -0.0453
vn -0.3733 -0.9266 0.0453
vn -0.6957 -0.7134 0.0845
vn -0.3516 -0.9266 0.1334
vn -0.6552 -0.7134 0.2485
vn -0.7005 0.7086 0.0850
vn -0.3869 0.9209 0.0470
vn -0.3869 0.9209 -0.0470
vn -0.7005 0.7086 -0.0851
vn -0.6598 0.7086 0.2502
vn -0.3644 0.9209 0.1382
vn -0.0000 -0.7134 0.7007
vn -0.0000 -0.9266 0.3761
vn -0.0000 0.9209 0.3897
vn -0.0000 0.7086 0.7056
vn -0.0000 0.9266 0.3761
vn -0.0000 0.7134 0.7007
vn 0.1677 0.7134 0.6804
vn 0.0900 0.9266 0.3651
vn 0.6957 -0.7134 -0.0845
vn 0.3733 -0.9266 -0.0453
vn 0.0933 -0.9209 0.3784
vn 0.1689 -0.7086 0.6851
vn -0.0000 -0.7086 0.7056
vn -0.0000 -0.9209 0.3897
vn 0.3869 0.9209 -0.0470
vn 0.7005 0.7086 -0.0851
vn 0.3734 0.9266 -0.0453
vn 0.6957 0.7134 -0.0845
vn 0.6552 0.7134 -0.2485
vn 0.3517 0.9266 -0.1334
vn -0.6552 -0.7134 -0.2485
vn -0.3516 -0.9266 -0.1334
vn 0.3644 -0.9209 -0.1382
vn 0.6598 -0.7086 -0.2502
vn 0.7005 -0.7086 -0.0851
vn 0.3869 -0.9209 -0.0470
vn -0.3644 0.9209 -0.1382
vn -0.6598 0.7086 -0.2502
vn -0.3517 0.9266 -0.1334
vn -0.6552 0.7134 -0.2485
vn -0.6957 0.7134 -0.0845
vn -0.3734 0.9266 -0.0453
vn -0.1677 -0.7134 0.6804
vn -0.0900 -0.9266 0.3651
vn -0.3869 -0.9209 -0.0470
vn -0.7005 -0.7086 -0.0851
vn -0.6598 -0.7086 -0.2502
vn -0.3644 -0.9209 -0.1382
vn -0.0933 0.9209 0.3784
vn -0.1689 0.7086 0.6851
vn -0.0900 0.9266 0.3651
vn -0.1677 0.7134 0.6804
vn 0.6957 -0.7134 0.0845
vn 0.3733 -0.9266 0.0453
vn -0.1689 -0.7086 0.6851
vn -0.0933 -0.9209 0.3784
vn 0.3869 0.9209 0.0470
vn 0.7005 0.7086 0.0851
vn 0.3734 0.9266 0.0453
vn 0.6957 0.7134 0.0845
vn -0.5767 -0.7134 -0.3981
vn -0.3096 -0.9266 -0.2137
vn 0.7005 -0.7086 0.0851
vn 0.3869 -0.9209 0.0470
vn -0.3207 0.9209 -0.2214
vn -0.5807 0.7086 -0.4009
vn -0.3096 0.9266 -0.2137
vn -0.5767 0.7134 -0.3981
vn -0.3257 -0.7134 0.6205
vn -0.1748 -0.9266 0.3330
vn -0.5807 -0.7086 -0.4009
vn -0.3207 -0.9209 -0.2214
vn -0.1811 0.9209 0.3451
vn -0.3279 0.7086 0.6248
vn -0.1748 0.9266 0.3330
vn -0.3256 0.7134 0.6205
vn 0.6552 -0.7134 0.2485
vn 0.3516 -0.9266 0.1333
vn -0.3279 -0.7086 0.6248
vn -0.1811 -0.9209 0.3451
vn 0.3644 0.9209 0.1382
vn 0.6598 0.7086 0.2502
vn 0.3517 0.9266 0.1334
vn 0.6552 0.7134 0.2485
vn -0.4647 -0.7134 -0.5245
vn -0.2494 -0.9266 -0.2816
vn 0.6598 -0.7086 0.2502
vn 0.3644 -0.9209 0.1382
vn -0.2584 0.9209 -0.2917
vn -0.4679 0.7086 -0.5282
vn -0.2494 0.9266 -0.2816
vn -0.4647 0.7134 -0.5245
vn 0.1677 -0.7134 -0.6804
vn 0.0900 -0.9266 -0.3652
vn -0.0000 -0.9266 -0.3761
vn -0.0000 -0.7134 -0.7008
vn -0.0900 -0.9266 -0.3652
vn -0.1677 -0.7134 -0.6804
vn -0.0000 0.7086 -0.7057
vn -0.0000 0.9209 -0.3897
vn 0.0933 0.9209 -0.3784
vn 0.1689 0.7086 -0.6851
vn -0.1689 0.7086 -0.6851
vn -0.0933 0.9209 -0.3784
vn -0.4647 -0.7134 0.5245
vn -0.2494 -0.9266 0.2815
vn -0.4679 -0.7086 -0.5282
vn -0.2584 -0.9209 -0.2917
vn -0.2584 0.9209 0.2917
vn -0.4679 0.7086 0.5282
vn -0.2494 0.9266 0.2815
vn -0.4647 0.7134 0.5245
vn 0.5767 -0.7134 0.3981
vn 0.3095 -0.9266 0.2136
vn -0.4679 -0.7086 0.5282
vn -0.2584 -0.9209 0.2917
vn 0.3207 0.9209 0.2214
vn 0.5807 0.7086 0.4008
vn 0.3095 0.9266 0.2136
vn 0.5767 0.7134 0.3981
vn -0.3257 -0.7134 -0.6205
vn -0.1748 -0.9266 -0.3331
vn 0.5807 -0.7086 0.4008
vn 0.3207 -0.9209 0.2214
vn -0.1811 0.9209 -0.3451
vn -0.3279 0.7086 -0.6248
vn -0.1748 0.9266 -0.3331
vn -0.3257 0.7134 -0.6205
vn 0.3257 -0.7134 -0.6205
vn 0.1748 -0.9266 -0.3331
vn -0.3279 -0.7086 -0.6248
vn -0.1811 -0.9209 -0.3451
vn 0.1811 0.9209 -0.3451
vn 0.3279 0.7086 -0.6248
vn 0.1748 0.9266 -0.3331
vn 0.3257 0.7134 -0.6205
vn 0.1677 0.7134 -0.6804
vn 0.0900 0.9266 -0.3652
vn -0.5767 -0.7134 0.3981
vn -0.3095 -0.9266 0.2136
vn 0.0933 -0.9209 -0.3784
vn 0.1689 -0.7086 -0.6851
vn 0.3279 -0.7086 -0.6248
vn 0.1811 -0.9209 -0.3451
vn -0.3207 0.9209 0.2214
vn -0.5807 0.7086 0.4009
vn -0.3095 0.9266 0.2136
vn -0.5767 0.7134 0.3981
vn -0.5807 -0.7086 0.4009
vn -0.3207 -0.9209 0.2214
vn 0.2494 0.9266 0.2815
vn 0.4647 0.7134 0.5245
vn 0.1748 0.9266 0.3330
vn 0.3257 0.7134 0.6205
vn -0.0900 0.9266 -0.3652
vn -0.1677 0.7134 -0.6804
vn -0.0000 0.9266 -0.3762
vn -0.0000 0.7134 -0.7008
vn 0.2494 0.9266 -0.2816
vn 0.4647 0.7134 -0.5245
vn 0.3096 0.9266 -0.2137
vn 0.5767 0.7134 -0.3981
vn -0.3517 0.9266 0.1334
vn -0.6552 0.7134 0.2485
vn 0.2584 -0.9209 0.2917
vn 0.4679 -0.7086 0.5282
vn 0.3279 -0.7086 0.6248
vn 0.1811 -0.9209 0.3451
vn -0.0933 -0.9209 -0.3784
vn -0.1689 -0.7086 -0.6851
vn -0.0000 -0.7086 -0.7057
vn -0.0000 -0.9209 -0.3897
vn 0.2584 -0.9209 -0.2917
vn 0.4679 -0.7086 -0.5282
vn 0.5807 -0.7086 -0.4008
vn 0.3207 -0.9209 -0.2214
vn -0.6957 0.7134 0.0845
vn -0.3734 0.9266 0.0453
vn -0.3644 -0.9209 0.1382
vn -0.6598 -0.7086 0.2502
vn -0.7005 -0.7086 0.0850
vn -0.3869 -0.9209 0.0470
vn 0.4422 -0.8434 0.3052
vn 0.2085 -0.9674 0.1439
vn 0.2369 -0.9674 0.0898
vn 0.5024 -0.8434 0.1905
vn -0.3563 -0.8434 0.4021
vn -0.1680 -0.9674 0.1896
vn -0.1177 -0.9674 0.2243
vn -0.2497 -0.8434 0.4757
vn -0.3563 -0.8434 -0.4021
vn -0.1680 -0.9674 -0.1896
vn -0.2085 -0.9674 -0.1439
vn -0.4422 -0.8434 -0.3052
vn 0.2515 -0.9674 0.0305
vn 0.5334 -0.8434 0.0648
vn -0.0606 -0.9674 0.2460
vn -0.1286 -0.8434 0.5217
vn -0.2369 -0.9674 -0.0898
vn -0.5024 -0.8434 -0.1905
vn 0.2515 -0.9674 -0.0305
vn 0.5334 -0.8434 -0.0648
vn -0.0000 -0.9674 0.2534
vn -0.0000 -0.8434 0.5373
vn -0.2497 -0.8434 -0.4758
vn -0.1178 -0.9674 -0.2244
vn -0.2515 -0.9674 -0.0305
vn -0.5334 -0.8434 -0.0648
vn 0.2369 -0.9674 -0.0899
vn 0.5024 -0.8434 -0.1905
vn 0.0606 -0.9674 0.2460
vn 0.1286 -0.8434 0.5216
vn -0.2515 -0.9674 0.0305
vn -0.5334 -0.8434 0.0648
vn 0.2085 -0.9674 -0.1439
vn 0.4422 -0.8434 -0.3052
vn 0.1177 -0.9674 0.2243
vn 0.2497 -0.8434 0.4757
vn -0.2369 -0.9674 0.0898
vn -0.5024 -0.8434 0.1905
vn 0.1680 -0.9674 -0.1897
vn 0.3563 -0.8434 -0.4022
vn 0.1680 -0.9674 0.1896
vn 0.3563 -0.8434 0.4021
vn -0.2085 -0.9674 0.1439
vn -0.4422 -0.8434 0.3052
vn 0.1178 -0.9674 -0.2244
vn 0.2497 -0.8434 -0.4757
vn 0.0607 -0.9673 -0.2462
vn 0.1286 -0.8434 -0.5217
vn -0.1286 -0.8434 -0.5217
vn -0.0607 -0.9673 -0.2461
vn 0.4232 -0.4132 0.8063
vn 0.4481 0.2652 0.8538
vn 0.2308 0.2652 0.9362
vn 0.2179 -0.4132 0.8842
vn -0.8515 -0.4132 0.3229
vn -0.9015 0.2651 0.3419
vn -0.9572 0.2651 0.1162
vn -0.9040 -0.4132 0.1098
vn 0.6039 -0.4132 -0.6816
vn 0.6394 0.2652 -0.7217
vn 0.7935 0.2652 -0.5477
vn 0.7495 -0.4131 -0.5173
vn 0.6039 -0.4132 0.6816
vn 0.6394 0.2652 0.7217
vn -0.7495 -0.4132 0.5173
vn -0.7935 0.2652 0.5477
vn 0.4232 -0.4132 -0.8063
vn 0.4481 0.2652 -0.8538
vn -0.4232 -0.4132 -0.8063
vn -0.4481 0.2652 -0.8538
vn -0.2307 0.2652 -0.9362
vn -0.2179 -0.4132 -0.8842
vn 0.7495 -0.4132 0.5173
vn 0.7935 0.2652 0.5477
vn -0.6039 -0.4132 0.6816
vn -0.6394 0.2652 0.7217
vn 0.2179 -0.4132 -0.8842
vn 0.2307 0.2652 -0.9362
vn -0.6039 -0.4132 -0.6816
vn -0.6394 0.2652 -0.7217
vn 0.8515 -0.4132 0.3229
vn 0.9016 0.2651 0.3419
vn -0.4232 -0.4132 0.8063
vn -0.4481 0.2652 0.8538
vn -0.0000 -0.4132 -0.9106
vn -0.0000 0.2652 -0.9642
vn -0.7495 -0.4132 -0.5173
vn -0.7935 0.2652 -0.5477
vn 0.9040 -0.4132 0.1098
vn 0.9572 0.2651 0.1162
vn -0.2179 -0.4132 0.8842
vn -0.2307 0.2651 0.9362
vn -0.8515 -0.4132 -0.3229
vn -0.9015 0.2652 -0.3419
vn 0.9040 -0.4132 -0.1098
vn 0.9572 0.2652 -0.1162
vn -0.0000 -0.4132 0.9106
vn -0.0000 0.2651 0.9642
vn -0.9040 -0.4132 -0.1098
vn -0.9572 0.2651 -0.1162
vn 0.8515 -0.4132 -0.3229
vn 0.9015 0.2652 -0.3419
vn 0.5304 0.8235 -0.2012
vn 0.5631 0.8235 -0.0684
vn 0.1357 0.8236 0.5508
vn -0.0000 0.8235 0.5672
vn -0.5631 0.8235 0.0684
vn -0.5631 0.8235 -0.0684
vn 0.4668 0.8235 -0.3222
vn 0.2636 0.8235 0.5023
vn -0.5304 0.8235 0.2012
vn 0.3762 0.8235 -0.4246
vn -0.1358 0.8235 -0.5508
vn -0.0000 0.8235 -0.5673
vn 0.3762 0.8235 0.4246
vn -0.4668 0.8235 0.3222
vn 0.2636 0.8235 -0.5023
vn -0.2636 0.8235 -0.5023
vn 0.4668 0.8235 0.3222
vn -0.3762 0.8235 0.4246
vn 0.1358 0.8235 -0.5508
vn -0.3762 0.8235 -0.4246
vn 0.5304 0.8235 0.2012
vn -0.2636 0.8235 0.5023
vn -0.4668 0.8235 -0.3222
vn 0.5631 0.8235 0.0684
vn -0.1358 0.8235 0.5508
vn -0.5304 0.8235 -0.2012
vn 0.9158 0.3858 -0.1112
vn 0.9158 0.3858 0.1112
vn -0.7593 0.3858 0.5241
vn -0.8626 0.3858 0.3271
vn -0.4287 0.3858 -0.8169
vn -0.2208 0.3858 -0.8958
vn 0.8626 0.3858 -0.3272
vn -0.6118 0.3858 0.6905
vn -0.6118 0.3858 -0.6906
vn 0.7593 0.3858 -0.5241
vn -0.4287 0.3859 0.8169
vn -0.0000 0.3858 0.9226
vn -0.2208 0.3858 0.8958
vn -0.7593 0.3858 -0.5241
vn 0.6118 0.3858 -0.6906
vn 0.6118 0.3858 0.6906
vn 0.4287 0.3858 0.8169
vn -0.8626 0.3858 -0.3271
vn 0.4287 0.3858 -0.8169
vn 0.7593 0.3858 0.5241
vn -0.9158 0.3858 -0.1112
vn 0.2208 0.3858 -0.8958
vn 0.2208 0.3858 0.8958
vn 0.8626 0.3858 0.3272
vn -0.9158 0.3858 0.1112
vn -0.0000 0.3858 -0.9226
vn -0.0079 1.0000 -0.0010
vn 0.5159 0.8543 0.0627
vn 0.4860 0.8543 0.1843
vn -0.0075 1.0000 -0.0028
vn 0.0075 1.0000 -0.0028
vn -0.4860 0.8543 0.1843
vn -0.5160 0.8543 0.0627
vn 0.0079 1.0000 -0.0010
vn 0.0019 1.0000 0.0077
vn -0.1244 0.8543 -0.5047
vn -0.0000 0.8543 -0.5198
vn -0.0000 1.0000 0.0080
vn -0.0079 1.0000 0.0010
vn 0.5159 0.8543 -0.0627
vn 0.0066 1.0000 -0.0045
vn -0.4277 0.8543 0.2952
vn 0.0037 1.0000 0.0071
vn -0.2415 0.8543 -0.4602
vn -0.0075 1.0000 0.0028
vn 0.4860 0.8543 -0.1843
vn 0.0053 1.0000 -0.0060
vn -0.3446 0.8543 0.3890
vn -0.0019 1.0000 -0.0078
vn 0.1244 0.8543 0.5047
vn -0.0000 0.8543 0.5198
vn -0.0000 1.0000 -0.0080
vn 0.0053 1.0000 0.0060
vn -0.3447 0.8543 -0.3890
vn -0.0066 1.0000 0.0045
vn 0.4277 0.8543 -0.2953
vn 0.0037 1.0000 -0.0071
vn -0.2415 0.8543 0.4602
vn -0.0037 1.0000 -0.0071
vn 0.2415 0.8543 0.4602
vn 0.0066 1.0000 0.0045
vn -0.4277 0.8543 -0.2952
vn -0.0053 1.0000 0.0060
vn 0.3447 0.8543 -0.3890
vn 0.0019 1.0000 -0.0078
vn -0.1244 0.8543 0.5047
vn -0.0053 1.0000 -0.0060
vn 0.3447 0.8543 0.3890
vn 0.0075 1.0000 0.0028
vn -0.4860 0.8543 -0.1843
vn -0.0037 1.0000 0.0071
vn 0.2415 0.8543 -0.4602
vn -0.0066 1.0000 -0.0045
vn 0.4277 0.8543 0.2952
vn 0.0079 1.0000 0.0010
vn -0.5160 0.8543 -0.0626
vn -0.0019 1.0000 0.0077
vn 0.1244 0.8543 -0.5047
vn -0.0000 -0.9673 -0.2535
vn -0.0000 -0.8434 -0.5373
vn -0.0000 1.0000 -0.0000
vn 0.3720 0.5992 0.7089
vn 0.5309 0.5992 0.5992
vn -0.0000 -1.0000 -0.0000
vn 0.1916 0.5992 0.7773
vn -0.0000 0.5992 0.8006
vn -0.1916 0.5992 0.7773
vn -0.3720 0.5992 0.7089
vn -0.5309 0.5992 0.5992
vn -0.6589 0.5992 0.4548
vn -0.7486 0.5992 0.2839
vn -0.7948 0.5992 0.0965
vn -0.7948 0.5992 -0.0965
vn -0.7486 0.5992 -0.2839
vn -0.6589 0.5992 -0.4548
vn -0.5309 0.5992 -0.5993
vn 0.6589 0.5992 0.4548
vn 0.7486 0.5992 0.2839
vn 0.7948 0.5992 0.0965
vn 0.7948 0.5992 -0.0965
vn 0.7486 0.5992 -0.2839
vn 0.6589 0.5992 -0.4548
vn 0.5309 0.5992 -0.5992
vn 0.3720 0.5992 -0.7089
vn 0.1916 0.5992 -0.7773
vn -0.0000 0.5992 -0.8006
vn -0.1916 0.5992 -0.7773
vn -0.3721 0.5992 -0.7089
vn -1.0000 -0.0000 -0.0000
vn -0.9096 0.4155 -0.0001
vn -0.8400 0.4160 -0.3482
vn -0.9239 -0.0000 -0.3827
vn 1.0000 -0.0000 -0.0000
vn 0.9066 0.4220 -0.0001
vn 0.8379 0.4215 0.3468
vn 0.9239 -0.0000 0.3827
vn 0.9239 -0.0000 -0.3827
vn 0.8376 0.4220 -0.3469
vn -0.7071 -0.0000 0.7071
vn -0.6429 0.4160 0.6432
vn -0.8403 0.4155 0.3482
vn -0.9239 -0.0000 0.3827
vn 0.7071 -0.0000 -0.7071
vn 0.6414 0.4215 -0.6411
vn -0.3827 -0.0000 0.9239
vn -0.3475 0.4169 0.8399
vn 0.3827 -0.0000 -0.9239
vn 0.3475 0.4206 -0.8380
vn 0.0005 0.4182 0.9084
vn -0.3827 -0.0000 -0.9239
vn -0.3472 0.4182 -0.8394
vn 0.0005 0.4194 -0.9078
vn 0.3827 -0.0000 0.9239
vn 0.3478 0.4194 0.8385
vn -0.7071 -0.0000 -0.7071
vn -0.6424 0.4170 -0.6430
vn 0.7071 -0.0000 0.7071
vn 0.6418 0.4206 0.6413
vn 0.5678 0.5963 0.5675
vn 0.3085 0.5927 0.7440
vn -0.7510 0.5823 -0.3112
vn -0.5732 0.5852 -0.5736
vn 0.7398 0.5991 0.3063
vn -0.8141 0.5808 -0.0001
vn 0.7996 0.6005 -0.0001
vn 0.7387 0.6006 -0.3059
vn -0.5747 0.5823 0.5750
vn -0.7521 0.5807 0.3116
vn 0.5663 0.5991 -0.5661
vn -0.3101 0.5851 0.7493
vn 0.3074 0.5963 -0.7415
vn 0.0003 0.5888 0.8083
vn -0.3090 0.5888 -0.7469
vn 0.0003 0.5927 -0.8054
vn 0.3035 0.6080 -0.7336
vn 0.5594 0.6114 -0.5597
vn -0.0004 0.5986 0.8011
vn -0.3082 0.5939 0.7432
vn -0.3069 0.5986 -0.7399
vn -0.0004 0.6035 -0.7973
vn 0.3048 0.6035 0.7368
vn -0.5691 0.5939 -0.5687
vn 0.5611 0.6081 0.5616
vn -0.7458 0.5903 -0.3087
vn 0.7309 0.6115 0.3030
vn -0.8086 0.5883 0.0001
vn 0.7899 0.6133 0.0001
vn 0.7297 0.6133 -0.3024
vn -0.5709 0.5903 0.5706
vn -0.7471 0.5883 0.3094
vn 0.0959 0.9946 -0.0406
vn -0.7323 0.6089 0.3048
vn -0.7933 0.6089 -0.0013
vn 0.1042 0.9946 0.0008
vn -0.0583 0.9968 0.0547
vn 0.5874 0.5821 -0.5623
vn 0.5894 0.8078 -0.0098
vn -0.0961 0.9946 0.0395
vn 0.0703 0.9948 -0.0738
vn -0.5594 0.6066 0.5649
vn -0.0324 0.9974 0.0648
vn 0.3191 0.5777 -0.7513
vn 0.0335 0.9953 -0.0913
vn -0.3000 0.6019 0.7401
vn -0.0055 0.9967 0.0816
vn 0.0081 0.5866 -0.8098
vn -0.0363 0.9966 -0.0733
vn 0.3174 0.5866 0.7451
vn 0.0076 0.5951 0.8036
vn -0.0050 0.9959 -0.0903
vn 0.0299 0.9959 0.0853
vn -0.3005 0.5951 -0.7454
vn -0.0547 0.9974 -0.0475
vn 0.5823 0.5777 0.5720
vn 0.0659 0.9953 0.0715
vn -0.5604 0.6019 -0.5690
vn -0.0740 0.9969 -0.0278
vn 0.7580 0.5814 0.2956
vn 0.0931 0.9948 0.0413
vn -0.7330 0.6066 -0.3078
vn -0.1034 0.9946 -0.0006
vn 0.5510 0.8068 -0.2134
vn 0.9244 0.1109 0.3650
vn 0.6989 0.1322 0.7029
vn -0.9204 0.0954 -0.3792
vn -0.7054 0.1027 -0.7014
vn 0.9838 0.0821 0.1592
vn -0.9958 0.0914 0.0007
vn -0.9203 0.0914 0.3805
vn 0.7153 0.1089 -0.6902
vn 0.8496 0.0781 -0.5217
vn -0.7052 0.0953 0.7025
vn 0.3767 0.1323 -0.9168
vn -0.3833 0.1027 0.9179
vn -0.0033 0.1227 -0.9924
vn 0.3767 0.1226 0.9182
vn -0.0033 0.1123 0.9937
vn -0.3833 0.1123 -0.9168
vn 0.7063 0.3244 0.6292
vn 0.5253 0.7477 0.4063
vn 0.3993 0.3146 -0.8612
vn 0.4192 0.1339 -0.8980
vn -0.0814 0.0304 -0.9962
vn 0.9565 0.2174 -0.1948
vn 0.9064 0.3793 -0.1857
vn 0.3050 0.7414 -0.5978
vn 0.3219 0.0572 0.9450
vn 0.7305 0.1448 0.6674
vn 0.6977 0.7003 -0.1508
vn 0.3346 0.9397 -0.0706
vt 0.422216 0.678167
vt 0.286682 0.678167
vt 0.286682 0.715408
vt 0.422216 0.715408
vt 0.422216 0.119552
vt 0.286682 0.119551
vt 0.286682 0.156793
vt 0.422216 0.156793
vt 0.422216 0.938854
vt 0.286682 0.938854
vt 0.286682 0.976095
vt 0.422216 0.976095
vt 0.422216 0.380239
vt 0.286682 0.380239
vt 0.286682 0.417480
vt 0.422216 0.417480
vt 0.286682 0.194034
vt 0.422216 0.194034
vt 0.422216 0.007829
vt 0.286682 0.007829
vt 0.286682 0.045069
vt 0.422216 0.045070
vt 0.286682 0.454721
vt 0.422216 0.454721
vt 0.145393 0.380239
vt 0.283248 0.380239
vt 0.283248 0.342998
vt 0.145393 0.342998
vt 0.145393 0.938854
vt 0.283248 0.938854
vt 0.283248 0.901613
vt 0.145393 0.901613
vt 0.145393 0.119552
vt 0.283248 0.119552
vt 0.283248 0.082311
vt 0.145393 0.082311
vt 0.145393 0.678167
vt 0.283248 0.678167
vt 0.283248 0.640926
vt 0.145393 0.640926
vt 0.145393 0.417480
vt 0.283248 0.417480
vt 0.145393 0.156793
vt 0.283248 0.156793
vt 0.003531 0.938854
vt 0.141960 0.938854
vt 0.141959 0.901613
vt 0.003531 0.901613
vt 0.145393 0.715408
vt 0.283248 0.715408
vt 0.145393 0.454721
vt 0.283248 0.454721
vt 0.145393 0.194034
vt 0.283248 0.194034
vt 0.145393 0.752649
vt 0.283248 0.752649
vt 0.145393 0.491962
vt 0.283248 0.491962
vt 0.145393 0.231275
vt 0.283248 0.231275
vt 0.145393 0.789890
vt 0.283248 0.789890
vt 0.145393 0.529203
vt 0.283248 0.529203
vt 0.003531 0.678167
vt 0.141959 0.678167
vt 0.141959 0.640926
vt 0.003531 0.640926
vt 0.003531 0.119551
vt 0.141959 0.119552
vt 0.141959 0.082311
vt 0.003531 0.082310
vt 0.003531 0.380239
vt 0.141959 0.380239
vt 0.141959 0.342998
vt 0.003531 0.342998
vt 0.283248 0.603685
vt 0.145393 0.603685
vt 0.283248 0.864372
vt 0.145393 0.864372
vt 0.283248 0.305757
vt 0.145393 0.305757
vt 0.003531 0.491962
vt 0.141959 0.491962
vt 0.141959 0.454721
vt 0.003531 0.454721
vt 0.003531 0.231275
vt 0.141959 0.231275
vt 0.141959 0.194034
vt 0.003531 0.194034
vt 0.003531 0.789890
vt 0.141959 0.789890
vt 0.141959 0.752649
vt 0.003531 0.752649
vt 0.003531 0.529203
vt 0.141959 0.529203
vt 0.003531 0.268516
vt 0.141959 0.268516
vt 0.003531 0.827131
vt 0.141959 0.827131
vt 0.003531 0.566444
vt 0.141959 0.566444
vt 0.003531 0.305757
vt 0.141959 0.305757
vt 0.283248 0.045070
vt 0.145393 0.045070
vt 0.003531 0.864372
vt 0.141959 0.864372
vt 0.003531 0.603685
vt 0.141959 0.603685
vt 0.141959 0.045070
vt 0.003531 0.045070
vt 0.141959 0.417480
vt 0.003531 0.417480
vt 0.141960 0.007829
vt 0.003531 0.007829
vt 0.141959 0.156793
vt 0.003531 0.156793
vt 0.145393 0.566444
vt 0.283248 0.566444
vt 0.145393 0.976095
vt 0.283248 0.976095
vt 0.145393 0.827131
vt 0.283248 0.827131
vt 0.286682 0.752649
vt 0.422216 0.752649
vt 0.003531 0.715408
vt 0.141959 0.715408
vt 0.286682 0.491962
vt 0.422216 0.491962
vt 0.286682 0.231275
vt 0.422216 0.231275
vt 0.286682 0.789890
vt 0.422216 0.789890
vt 0.286682 0.529203
vt 0.422216 0.529203
vt 0.286682 0.268516
vt 0.422216 0.268516
vt 0.286682 0.827131
vt 0.422216 0.827131
vt 0.286682 0.566444
vt 0.422216 0.566444
vt 0.286682 0.305757
vt 0.422216 0.305757
vt 0.286682 0.864372
vt 0.422216 0.864372
vt 0.003531 0.976095
vt 0.141960 0.976095
vt 0.286682 0.603685
vt 0.422216 0.603685
vt 0.286682 0.342998
vt 0.422216 0.342998
vt 0.286682 0.901613
vt 0.422216 0.901613
vt 0.286682 0.082310
vt 0.422216 0.082311
vt 0.286682 0.640926
vt 0.422216 0.640926
vt 0.283248 0.007829
vt 0.145393 0.007829
vt 0.283248 0.268516
vt 0.145393 0.268516
vt 0.479914 0.462834
vt 0.485190 0.462847
vt 0.485188 0.425037
vt 0.479912 0.425024
vt 0.485185 0.387230
vt 0.479910 0.387217
vt 0.448874 0.576307
vt 0.454185 0.576320
vt 0.454182 0.538497
vt 0.448872 0.538484
vt 0.448876 0.614133
vt 0.454187 0.614146
vt 0.479900 0.198224
vt 0.485174 0.198237
vt 0.485172 0.160444
vt 0.479898 0.160431
vt 0.485170 0.122652
vt 0.479896 0.122639
vt 0.448888 0.841149
vt 0.454201 0.841162
vt 0.454199 0.803321
vt 0.448886 0.803307
vt 0.448889 0.878991
vt 0.454203 0.879005
vt 0.479929 0.765441
vt 0.485209 0.765455
vt 0.485207 0.727618
vt 0.479927 0.727605
vt 0.485205 0.689785
vt 0.479925 0.689771
vt 0.448858 0.273823
vt 0.454165 0.273837
vt 0.454163 0.236039
vt 0.448856 0.236025
vt 0.448860 0.311623
vt 0.454167 0.311637
vt 0.479916 0.500648
vt 0.485193 0.500661
vt 0.454180 0.500678
vt 0.448870 0.500665
vt 0.465668 0.500654
vt 0.470945 0.500667
vt 0.470944 0.462853
vt 0.465667 0.462840
vt 0.479902 0.236018
vt 0.485176 0.236032
vt 0.434592 0.538490
vt 0.439902 0.538503
vt 0.439901 0.500684
vt 0.434591 0.500671
vt 0.454197 0.765481
vt 0.448884 0.765468
vt 0.465662 0.236024
vt 0.470937 0.236038
vt 0.470935 0.198243
vt 0.465661 0.198230
vt 0.479931 0.803279
vt 0.485211 0.803293
vt 0.434598 0.803313
vt 0.439911 0.803327
vt 0.439909 0.765487
vt 0.434597 0.765474
vt 0.454161 0.198242
vt 0.448854 0.198229
vt 0.465674 0.803285
vt 0.470955 0.803299
vt 0.470954 0.765460
vt 0.465673 0.765447
vt 0.479918 0.538465
vt 0.485195 0.538479
vt 0.434584 0.236031
vt 0.439891 0.236045
vt 0.439890 0.198248
vt 0.434583 0.198235
vt 0.454177 0.462863
vt 0.448868 0.462850
vt 0.465668 0.538471
vt 0.470946 0.538485
vt 0.479904 0.273814
vt 0.485178 0.273828
vt 0.439899 0.462869
vt 0.434590 0.462856
vt 0.454194 0.727643
vt 0.448882 0.727630
vt 0.465663 0.273820
vt 0.470938 0.273834
vt 0.479932 0.841119
vt 0.485213 0.841133
vt 0.439908 0.727650
vt 0.434596 0.727636
vt 0.454159 0.160447
vt 0.448852 0.160434
vt 0.465676 0.841125
vt 0.470956 0.841139
vt 0.479920 0.576287
vt 0.485198 0.576300
vt 0.439888 0.160453
vt 0.434582 0.160440
vt 0.454175 0.425052
vt 0.448866 0.425039
vt 0.465669 0.576293
vt 0.470948 0.576307
vt 0.479906 0.311612
vt 0.485181 0.311626
vt 0.439898 0.425058
vt 0.434590 0.425044
vt 0.454192 0.689808
vt 0.448880 0.689795
vt 0.465664 0.311618
vt 0.470939 0.311632
vt 0.479934 0.878960
vt 0.485215 0.878974
vt 0.439907 0.689814
vt 0.434595 0.689801
vt 0.454157 0.122653
vt 0.448851 0.122640
vt 0.465677 0.878966
vt 0.470958 0.878980
vt 0.479898 0.047038
vt 0.485166 0.047070
vt 0.485551 0.008762
vt 0.480181 0.008104
vt 0.480080 0.993711
vt 0.485551 0.993069
vt 0.485245 0.954660
vt 0.479922 0.954669
vt 0.449034 0.993741
vt 0.454537 0.993099
vt 0.454232 0.954694
vt 0.448877 0.954703
vt 0.448852 0.047035
vt 0.454152 0.047067
vt 0.454537 0.008762
vt 0.449135 0.008104
vt 0.479922 0.614112
vt 0.485200 0.614125
vt 0.439887 0.122659
vt 0.434580 0.122646
vt 0.454172 0.387244
vt 0.448864 0.387231
vt 0.465670 0.614118
vt 0.470949 0.614132
vt 0.479908 0.349413
vt 0.485183 0.349427
vt 0.439897 0.387250
vt 0.434589 0.387236
vt 0.454190 0.651976
vt 0.448878 0.651962
vt 0.465665 0.349419
vt 0.470941 0.349433
vt 0.479936 0.916804
vt 0.485217 0.916816
vt 0.439906 0.651982
vt 0.434594 0.651968
vt 0.454155 0.084860
vt 0.448849 0.084847
vt 0.465678 0.916809
vt 0.470959 0.916822
vt 0.479895 0.084848
vt 0.485169 0.084861
vt 0.439885 0.084864
vt 0.434579 0.084853
vt 0.454205 0.916848
vt 0.448891 0.916837
vt 0.465656 0.084854
vt 0.470930 0.084865
vt 0.470944 0.047053
vt 0.465629 0.047062
vt 0.479923 0.651940
vt 0.485203 0.651954
vt 0.434604 0.954686
vt 0.439912 0.954718
vt 0.439915 0.916855
vt 0.434601 0.916841
vt 0.454170 0.349439
vt 0.448862 0.349426
vt 0.465671 0.651946
vt 0.470950 0.651960
vt 0.439895 0.349445
vt 0.434588 0.349431
vt 0.465666 0.387223
vt 0.470942 0.387236
vt 0.465667 0.425030
vt 0.470943 0.425043
vt 0.465681 0.954652
vt 0.470956 0.954684
vt 0.465295 0.993014
vt 0.470672 0.993673
vt 0.465658 0.122645
vt 0.470932 0.122658
vt 0.465659 0.160437
vt 0.470933 0.160450
vt 0.465671 0.689777
vt 0.470951 0.689791
vt 0.434593 0.614139
vt 0.439904 0.614152
vt 0.439903 0.576326
vt 0.434592 0.576312
vt 0.470786 0.008067
vt 0.465323 0.008707
vt 0.434551 0.047060
vt 0.439899 0.047050
vt 0.439742 0.008066
vt 0.434247 0.008707
vt 0.434219 0.993045
vt 0.439628 0.993704
vt 0.434600 0.878997
vt 0.439913 0.879010
vt 0.439912 0.841168
vt 0.434599 0.841155
vt 0.470952 0.727624
vt 0.465672 0.727611
vt 0.434587 0.311629
vt 0.439894 0.311643
vt 0.439893 0.273843
vt 0.434586 0.273829
vt 0.475427 0.425033
vt 0.475429 0.462843
vt 0.444387 0.538494
vt 0.444389 0.576316
vt 0.475416 0.160440
vt 0.475418 0.198233
vt 0.444398 0.803317
vt 0.444400 0.841158
vt 0.475440 0.727615
vt 0.475441 0.765451
vt 0.444374 0.236035
vt 0.444375 0.273833
vt 0.475430 0.500657
vt 0.444385 0.500675
vt 0.475419 0.236028
vt 0.444397 0.765478
vt 0.475443 0.803289
vt 0.444372 0.198239
vt 0.475432 0.538475
vt 0.444384 0.462860
vt 0.475421 0.273824
vt 0.444395 0.727640
vt 0.475444 0.841129
vt 0.444370 0.160444
vt 0.475433 0.576297
vt 0.444382 0.425048
vt 0.475423 0.311622
vt 0.444394 0.689805
vt 0.475446 0.878970
vt 0.444369 0.122650
vt 0.475514 0.007829
vt 0.475436 0.047039
vt 0.444379 0.954717
vt 0.444301 0.993979
vt 0.475435 0.614122
vt 0.444380 0.387240
vt 0.475424 0.349423
vt 0.444392 0.651972
vt 0.475447 0.916813
vt 0.444367 0.084855
vt 0.475413 0.084856
vt 0.444403 0.916846
vt 0.475437 0.651950
vt 0.444379 0.349435
vt 0.475426 0.387227
vt 0.444390 0.614143
vt 0.475423 0.954683
vt 0.444391 0.047036
vt 0.475414 0.122648
vt 0.444402 0.879001
vt 0.475438 0.689781
vt 0.444377 0.311633
vt 0.475346 0.993949
vt 0.444469 0.007829
vt 0.560715 0.286520
vt 0.557896 0.286520
vt 0.557896 0.251258
vt 0.560715 0.251258
vt 0.560715 0.533357
vt 0.557896 0.533357
vt 0.557896 0.498095
vt 0.560715 0.498095
vt 0.560715 0.780195
vt 0.557896 0.780195
vt 0.557896 0.744932
vt 0.560715 0.744932
vt 0.557896 0.215995
vt 0.560715 0.215995
vt 0.557896 0.462832
vt 0.560715 0.462832
vt 0.557896 0.709670
vt 0.560715 0.709670
vt 0.557896 0.180733
vt 0.560715 0.180733
vt 0.557896 0.427570
vt 0.560715 0.427570
vt 0.560715 0.815457
vt 0.557896 0.815457
vt 0.557896 0.674407
vt 0.560715 0.674407
vt 0.557896 0.145470
vt 0.560715 0.145470
vt 0.557896 0.392308
vt 0.560715 0.392308
vt 0.557896 0.639145
vt 0.560715 0.639145
vt 0.557896 0.110208
vt 0.560715 0.110208
vt 0.557896 0.357045
vt 0.560715 0.357045
vt 0.557896 0.603882
vt 0.560715 0.603882
vt 0.557896 0.074945
vt 0.560715 0.074945
vt 0.557896 0.321783
vt 0.560715 0.321783
vt 0.557896 0.568620
vt 0.560715 0.568620
vt 0.557896 0.039683
vt 0.560715 0.039683
vt 0.557896 0.004420
vt 0.560715 0.004420
vt 0.560715 0.850720
vt 0.557896 0.850720
vt 0.563624 0.357045
vt 0.567010 0.357045
vt 0.567010 0.392308
vt 0.563624 0.392308
vt 0.563624 0.603882
vt 0.567010 0.603882
vt 0.567010 0.639145
vt 0.563624 0.639145
vt 0.563624 0.074945
vt 0.567010 0.074945
vt 0.567010 0.110208
vt 0.563624 0.110208
vt 0.563624 0.321783
vt 0.567010 0.321783
vt 0.563624 0.568620
vt 0.567010 0.568620
vt 0.563624 0.039683
vt 0.567010 0.039683
vt 0.563624 0.815457
vt 0.567010 0.815457
vt 0.567010 0.850720
vt 0.563624 0.850720
vt 0.563624 0.286520
vt 0.567010 0.286520
vt 0.563624 0.533357
vt 0.567010 0.533357
vt 0.563624 0.004420
vt 0.567010 0.004420
vt 0.563624 0.780195
vt 0.567010 0.780195
vt 0.563624 0.251258
vt 0.567010 0.251258
vt 0.563624 0.498095
vt 0.567010 0.498095
vt 0.563624 0.885982
vt 0.567010 0.885982
vt 0.567010 0.921245
vt 0.563624 0.921245
vt 0.563624 0.744932
vt 0.567010 0.744932
vt 0.563624 0.215995
vt 0.567010 0.215995
vt 0.563624 0.462832
vt 0.567010 0.462832
vt 0.563624 0.709670
vt 0.567010 0.709670
vt 0.563624 0.180733
vt 0.567010 0.180733
vt 0.563624 0.427570
vt 0.567010 0.427570
vt 0.563624 0.674407
vt 0.567010 0.674407
vt 0.563624 0.145470
vt 0.567010 0.145470
vt 0.572120 0.145470
vt 0.572120 0.180733
vt 0.572120 0.392308
vt 0.572120 0.427570
vt 0.572120 0.639145
vt 0.572120 0.674407
vt 0.572120 0.110208
vt 0.572120 0.357045
vt 0.572120 0.603882
vt 0.572120 0.074945
vt 0.572120 0.850720
vt 0.572120 0.885982
vt 0.572120 0.321783
vt 0.572120 0.568620
vt 0.572120 0.039683
vt 0.572120 0.815457
vt 0.572120 0.286520
vt 0.572120 0.533357
vt 0.572120 0.004420
vt 0.572120 0.780195
vt 0.572120 0.251258
vt 0.572120 0.498095
vt 0.572120 0.921245
vt 0.572120 0.744932
vt 0.572120 0.215995
vt 0.572120 0.462832
vt 0.572120 0.709670
vt 0.584163 0.639145
vt 0.595930 0.639145
vt 0.595930 0.674407
vt 0.584163 0.674407
vt 0.584163 0.110208
vt 0.595930 0.110208
vt 0.595930 0.145470
vt 0.584163 0.145470
vt 0.584163 0.357045
vt 0.595930 0.357045
vt 0.595930 0.392308
vt 0.584163 0.392308
vt 0.584163 0.603882
vt 0.595930 0.603882
vt 0.584163 0.074945
vt 0.595930 0.074945
vt 0.584163 0.321783
vt 0.595930 0.321783
vt 0.584163 0.568620
vt 0.595930 0.568620
vt 0.584163 0.039683
vt 0.595930 0.039683
vt 0.584163 0.885982
vt 0.595930 0.885982
vt 0.595930 0.921245
vt 0.584163 0.921245
vt 0.584163 0.286520
vt 0.595930 0.286520
vt 0.584163 0.533357
vt 0.595930 0.533357
vt 0.584163 0.004420
vt 0.595930 0.004420
vt 0.584163 0.780195
vt 0.595930 0.780195
vt 0.595930 0.815457
vt 0.584163 0.815457
vt 0.584163 0.251258
vt 0.595930 0.251258
vt 0.584163 0.498095
vt 0.595930 0.498095
vt 0.584163 0.744932
vt 0.595930 0.744932
vt 0.584163 0.215995
vt 0.595930 0.215995
vt 0.584163 0.462832
vt 0.595930 0.462832
vt 0.595930 0.850720
vt 0.584163 0.850720
vt 0.584163 0.709670
vt 0.595930 0.709670
vt 0.584163 0.180733
vt 0.595930 0.180733
vt 0.584163 0.427570
vt 0.595930 0.427570
vt 0.576831 0.674407
vt 0.581168 0.674407
vt 0.581168 0.709670
vt 0.576831 0.709670
vt 0.576831 0.145470
vt 0.581168 0.145470
vt 0.581168 0.180733
vt 0.576831 0.180733
vt 0.576831 0.392308
vt 0.581168 0.392308
vt 0.581168 0.427570
vt 0.576831 0.427570
vt 0.576831 0.639145
vt 0.581168 0.639145
vt 0.576831 0.110208
vt 0.581168 0.110208
vt 0.576831 0.357045
vt 0.581168 0.357045
vt 0.576831 0.603882
vt 0.581168 0.603882
vt 0.576831 0.074945
vt 0.581168 0.074945
vt 0.576831 0.850720
vt 0.581168 0.850720
vt 0.581168 0.885982
vt 0.576831 0.885982
vt 0.576831 0.321783
vt 0.581168 0.321783
vt 0.576831 0.568620
vt 0.581168 0.568620
vt 0.576831 0.039683
vt 0.581168 0.039683
vt 0.576831 0.815457
vt 0.581168 0.815457
vt 0.576831 0.286520
vt 0.581168 0.286520
vt 0.576831 0.533357
vt 0.581168 0.533357
vt 0.576831 0.004420
vt 0.581168 0.004420
vt 0.576831 0.780195
vt 0.581168 0.780195
vt 0.576831 0.251258
vt 0.581168 0.251258
vt 0.576831 0.498095
vt 0.581168 0.498095
vt 0.581168 0.921245
vt 0.576831 0.921245
vt 0.576831 0.744932
vt 0.581168 0.744932
vt 0.576831 0.215995
vt 0.581168 0.215995
vt 0.576831 0.462832
vt 0.581168 0.462832
vt 0.560715 0.921245
vt 0.557896 0.921245
vt 0.557896 0.885982
vt 0.560715 0.885982
vt 0.900344 0.731879
vt 0.804077 0.840542
vt 0.923551 0.758075
vt 0.769335 0.981495
vt 0.736612 0.969086
vt 0.900344 0.949205
vt 0.871542 0.969085
vt 0.668338 0.789063
vt 0.684602 0.758075
vt 0.871542 0.711998
vt 0.804077 0.985714
vt 0.923551 0.923009
vt 0.659963 0.823043
vt 0.838819 0.699588
vt 0.939815 0.892020
vt 0.659963 0.858041
vt 0.804077 0.695370
vt 0.948191 0.858040
vt 0.668338 0.892021
vt 0.769335 0.699588
vt 0.948191 0.823043
vt 0.684602 0.923009
vt 0.736612 0.711998
vt 0.939815 0.789063
vt 0.707810 0.949205
vt 0.838819 0.981495
vt 0.707810 0.731879
vt 0.539873 0.574946
vt 0.534811 0.574946
vt 0.534811 0.612760
vt 0.539873 0.612760
vt 0.917138 0.060362
vt 0.941073 0.087380
vt 0.947475 0.082961
vt 0.922296 0.054539
vt 0.539873 0.537132
vt 0.534811 0.537132
vt 0.891047 0.032969
vt 0.887432 0.039858
vt 0.539873 0.499318
vt 0.534811 0.499318
vt 0.855544 0.019504
vt 0.853682 0.027058
vt 0.539873 0.461503
vt 0.534811 0.461503
vt 0.817850 0.014927
vt 0.817850 0.022707
vt 0.539873 0.423689
vt 0.534811 0.423689
vt 0.780156 0.019504
vt 0.782018 0.027058
vt 0.539873 0.385875
vt 0.534811 0.385875
vt 0.744653 0.032968
vt 0.748268 0.039857
vt 0.539873 0.348061
vt 0.534811 0.348061
vt 0.713403 0.054538
vt 0.718562 0.060361
vt 0.539873 0.310247
vt 0.534811 0.310247
vt 0.688224 0.082960
vt 0.694627 0.087379
vt 0.539873 0.272433
vt 0.534811 0.272433
vt 0.670578 0.116581
vt 0.677852 0.119340
vt 0.539873 0.234618
vt 0.534811 0.234618
vt 0.661491 0.153449
vt 0.669214 0.154386
vt 0.539873 0.196804
vt 0.534811 0.196804
vt 0.661491 0.191419
vt 0.669214 0.190482
vt 0.539873 0.158990
vt 0.534811 0.158990
vt 0.670578 0.228287
vt 0.677852 0.225528
vt 0.539873 0.121176
vt 0.534811 0.121176
vt 0.688224 0.261908
vt 0.694626 0.257489
vt 0.713403 0.290329
vt 0.718562 0.284506
vt 0.957847 0.119341
vt 0.966485 0.154387
vt 0.974208 0.153449
vt 0.965121 0.116582
vt 0.941072 0.257489
vt 0.917137 0.284507
vt 0.922296 0.290330
vt 0.947475 0.261908
vt 0.887431 0.305011
vt 0.891046 0.311900
vt 0.853681 0.317811
vt 0.855543 0.325364
vt 0.817849 0.322161
vt 0.817849 0.329941
vt 0.782017 0.317810
vt 0.780155 0.325364
vt 0.748267 0.305011
vt 0.744652 0.311899
vt 0.966485 0.190482
vt 0.957847 0.225528
vt 0.965121 0.228287
vt 0.974208 0.191420
vt 0.495821 0.910211
vt 0.504225 0.910211
vt 0.504225 0.874116
vt 0.495821 0.874116
vt 0.495820 0.368783
vt 0.504225 0.368783
vt 0.504225 0.332688
vt 0.495820 0.332688
vt 0.495820 0.621451
vt 0.504225 0.621451
vt 0.504225 0.585356
vt 0.495820 0.585356
vt 0.495821 0.080020
vt 0.504225 0.080020
vt 0.504225 0.043924
vt 0.495821 0.043924
vt 0.504225 0.838021
vt 0.495821 0.838021
vt 0.504225 0.296593
vt 0.495820 0.296593
vt 0.504225 0.549260
vt 0.495820 0.549260
vt 0.504225 0.007829
vt 0.495821 0.007829
vt 0.504225 0.801926
vt 0.495821 0.801926
vt 0.504225 0.260497
vt 0.495820 0.260497
vt 0.504225 0.513165
vt 0.495820 0.513165
vt 0.504225 0.765831
vt 0.495821 0.765831
vt 0.504225 0.224402
vt 0.495820 0.224402
vt 0.504225 0.477070
vt 0.495820 0.477070
vt 0.504225 0.729736
vt 0.495820 0.729736
vt 0.504225 0.188306
vt 0.495820 0.188306
vt 0.504225 0.440974
vt 0.495820 0.440974
vt 0.504225 0.693641
vt 0.495820 0.693641
vt 0.504225 0.152211
vt 0.495821 0.152211
vt 0.504225 0.404879
vt 0.495820 0.404879
vt 0.504225 0.657546
vt 0.495820 0.657546
vt 0.504225 0.116115
vt 0.495821 0.116115
vt 0.495821 0.946306
vt 0.504225 0.946306
vt 0.682431 0.559373
vt 0.822429 0.506279
vt 0.673793 0.524327
vt 0.699205 0.421224
vt 0.723141 0.394207
vt 0.892010 0.638856
vt 0.858261 0.651655
vt 0.945652 0.421224
vt 0.962426 0.453185
vt 0.673793 0.488231
vt 0.752847 0.373702
vt 0.822429 0.656006
vt 0.971064 0.488231
vt 0.682431 0.453185
vt 0.786596 0.360902
vt 0.786596 0.651655
vt 0.971064 0.524327
vt 0.822429 0.356552
vt 0.752847 0.638856
vt 0.962426 0.559373
vt 0.858260 0.360902
vt 0.723141 0.618351
vt 0.945652 0.591334
vt 0.892010 0.373702
vt 0.699205 0.591334
vt 0.921716 0.618352
vt 0.921716 0.394206
vt 0.517082 0.196804
vt 0.517082 0.234618
vt 0.534811 0.764017
vt 0.517082 0.764017
vt 0.517082 0.801831
vt 0.534811 0.801831
vt 0.517082 0.499318
vt 0.517082 0.537132
vt 0.517082 0.272433
vt 0.517082 0.839645
vt 0.534811 0.839645
vt 0.517082 0.574946
vt 0.517082 0.310247
vt 0.517082 0.877459
vt 0.534811 0.877459
vt 0.534811 0.007733
vt 0.517082 0.007733
vt 0.517082 0.045547
vt 0.534811 0.045547
vt 0.517082 0.612760
vt 0.517082 0.348061
vt 0.517082 0.915273
vt 0.534811 0.915273
vt 0.517082 0.083362
vt 0.534811 0.083362
vt 0.517082 0.650574
vt 0.534811 0.650574
vt 0.517082 0.385875
vt 0.517082 0.953088
vt 0.534811 0.953088
vt 0.517082 0.121176
vt 0.517082 0.688389
vt 0.534811 0.688389
vt 0.517082 0.423689
vt 0.517082 0.990901
vt 0.534811 0.990901
vt 0.517082 0.158990
vt 0.517082 0.726203
vt 0.534811 0.726203
vt 0.517082 0.461503
vt 0.539873 0.650574
vt 0.539873 0.688389
vt 0.539873 0.726203
vt 0.539873 0.764017
vt 0.539873 0.801831
vt 0.539873 0.839645
vt 0.539873 0.877459
vt 0.539873 0.915273
vt 0.539873 0.953088
vt 0.539873 0.990901
vt 0.539873 0.007733
vt 0.539873 0.045547
vt 0.539873 0.083362
vt 0.630416 0.405572
vt 0.619548 0.405572
vt 0.619548 0.424089
vt 0.630416 0.424089
vt 0.630416 0.256851
vt 0.619549 0.256851
vt 0.619549 0.275392
vt 0.630416 0.275392
vt 0.630416 0.535330
vt 0.619548 0.535330
vt 0.619548 0.553870
vt 0.630416 0.553870
vt 0.630416 0.368093
vt 0.619549 0.368093
vt 0.619549 0.386639
vt 0.630416 0.386639
vt 0.630416 0.516790
vt 0.619548 0.516790
vt 0.630416 0.349552
vt 0.619549 0.349552
vt 0.630416 0.498249
vt 0.619548 0.498249
vt 0.630416 0.331012
vt 0.619549 0.331012
vt 0.630416 0.461169
vt 0.619548 0.461169
vt 0.619548 0.479709
vt 0.630416 0.479709
vt 0.630416 0.312472
vt 0.619549 0.312472
vt 0.630416 0.442629
vt 0.619548 0.442629
vt 0.630416 0.293932
vt 0.619549 0.293932
vt 0.614476 0.293932
vt 0.614476 0.312472
vt 0.614476 0.424089
vt 0.614476 0.442629
vt 0.614476 0.275392
vt 0.614476 0.405572
vt 0.614476 0.256851
vt 0.614476 0.535330
vt 0.614476 0.553870
vt 0.614476 0.368093
vt 0.614476 0.386639
vt 0.614476 0.516790
vt 0.614476 0.349552
vt 0.614476 0.498249
vt 0.614476 0.331012
vt 0.614476 0.461169
vt 0.614476 0.479709
vt 0.608483 0.498249
vt 0.608483 0.516790
vt 0.608483 0.331012
vt 0.608483 0.349552
vt 0.608483 0.461169
vt 0.608483 0.479709
vt 0.608483 0.312472
vt 0.608483 0.442629
vt 0.608483 0.293932
vt 0.608483 0.424089
vt 0.608483 0.275392
vt 0.608483 0.405572
vt 0.608483 0.256851
vt 0.608483 0.535330
vt 0.608483 0.553870
vt 0.608483 0.368093
vt 0.608483 0.386639
vt 0.836080 0.197017
vt 0.841040 0.196165
vt 0.841061 0.179948
vt 0.836084 0.179105
vt 0.919402 0.162315
vt 0.916280 0.164838
vt 0.921334 0.180325
vt 0.926186 0.178996
vt 0.842913 0.213571
vt 0.847246 0.211141
vt 0.906681 0.149635
vt 0.904845 0.153393
vt 0.855556 0.226292
vt 0.858692 0.222627
vt 0.890087 0.142815
vt 0.889890 0.147210
vt 0.890038 0.233282
vt 0.889843 0.228888
vt 0.873653 0.228859
vt 0.872104 0.233217
vt 0.872146 0.142868
vt 0.873692 0.147229
vt 0.906635 0.226472
vt 0.904799 0.222712
vt 0.855582 0.149784
vt 0.858719 0.153455
vt 0.919367 0.213791
vt 0.916243 0.211265
vt 0.842919 0.162513
vt 0.847259 0.164946
vt 0.926167 0.197089
vt 0.921301 0.195982
vt 0.612894 0.230742
vt 0.622705 0.230742
vt 0.622705 0.214680
vt 0.612894 0.214680
vt 0.612894 0.102239
vt 0.622705 0.102239
vt 0.622705 0.086176
vt 0.612894 0.086176
vt 0.612894 0.246785
vt 0.622705 0.246785
vt 0.612894 0.118302
vt 0.622705 0.118302
vt 0.612894 0.134364
vt 0.622705 0.134364
vt 0.612894 0.021924
vt 0.622705 0.021924
vt 0.622705 0.005855
vt 0.612894 0.005855
vt 0.612894 0.150428
vt 0.622705 0.150428
vt 0.612894 0.037987
vt 0.622705 0.037987
vt 0.612894 0.166491
vt 0.622705 0.166491
vt 0.612894 0.054050
vt 0.622705 0.054050
vt 0.612894 0.198616
vt 0.622705 0.198616
vt 0.622705 0.182554
vt 0.612894 0.182554
vt 0.612894 0.070113
vt 0.622705 0.070113
vt 0.744801 0.151016
vt 0.752602 0.190875
vt 0.760638 0.151016
vt 0.775271 0.224575
vt 0.760639 0.230636
vt 0.744802 0.230636
vt 0.730169 0.157077
vt 0.786469 0.213376
vt 0.718971 0.168276
vt 0.792530 0.198744
vt 0.712910 0.182908
vt 0.792530 0.182907
vt 0.712910 0.198745
vt 0.786469 0.168275
vt 0.718971 0.213377
vt 0.775270 0.157077
vt 0.730170 0.224575
vt 0.831912 0.178314
vt 0.839347 0.160234
vt 0.930160 0.197897
vt 0.922708 0.216111
vt 0.853139 0.146357
vt 0.908801 0.229939
vt 0.871190 0.138811
vt 0.890697 0.237353
vt 0.890748 0.138744
vt 0.871145 0.237271
vt 0.853113 0.229715
vt 0.908849 0.146169
vt 0.839348 0.215845
vt 0.922740 0.160000
vt 0.831929 0.197815
vt 0.930160 0.178187
vt 0.834949 0.087516
vt 0.817193 0.088398
vt 0.819756 0.090928
vt 0.834949 0.103220
vt 0.817364 0.102536
vt 0.814676 0.105582
vt 0.830915 0.112660
vt 0.809507 0.100633
vt 0.812044 0.098431
vt 0.820146 0.100154
vt 0.830872 0.078098
vt 0.814598 0.085293
vt 0.815691 0.096442
vt 0.812028 0.092462
vt 0.815644 0.094444
vt 0.809489 0.090305
vt 0.819468 0.095350
s 1
usemtl Barrel
f 9/1/1 57/2/1 56/3/2 8/4/2
f 24/5/3 65/6/3 64/7/4 23/8/4
f 2/9/5 73/10/5 72/11/6 1/12/6
f 17/13/7 81/14/7 80/15/8 16/16/8
f 23/8/4 64/7/4 149/17/9 22/18/9
f 1/19/6 72/20/6 105/21/10 26/22/10
f 16/16/8 80/15/8 153/23/11 15/24/11
f 104/25/12 37/26/12 36/27/13 88/28/13
f 108/29/10 52/30/10 51/31/14 92/32/14
f 112/33/15 30/34/15 29/35/16 96/36/16
f 116/37/17 45/38/17 44/39/18 100/40/18
f 120/41/19 38/42/19 37/26/12 104/25/12
f 124/43/20 31/44/20 30/34/15 112/33/15
f 75/45/5 74/46/5 94/47/16 95/48/16
f 128/49/21 46/50/21 45/38/17 116/37/17
f 132/51/22 39/52/22 38/42/19 120/41/19
f 136/53/23 32/54/23 31/44/20 124/43/20
f 140/55/24 47/56/24 46/50/21 128/49/21
f 144/57/25 40/58/25 39/52/22 132/51/22
f 148/59/26 33/60/26 32/54/23 136/53/23
f 152/61/9 48/62/9 47/56/24 140/55/24
f 156/63/11 41/64/11 40/58/25 144/57/25
f 59/65/1 58/66/1 86/67/13 87/68/13
f 67/69/3 66/70/3 90/71/14 91/72/14
f 83/73/7 82/74/7 98/75/18 99/76/18
f 100/40/18 44/39/18 43/77/7 84/78/7
f 92/32/14 51/31/14 50/79/3 68/80/3
f 88/28/13 36/27/13 35/81/1 60/82/1
f 143/83/25 142/84/25 154/85/11 155/86/11
f 139/87/24 138/88/24 150/89/9 151/90/9
f 135/91/23 134/92/23 146/93/26 147/94/26
f 131/95/22 130/96/22 142/84/25 143/83/25
f 127/97/21 126/98/21 138/88/24 139/87/24
f 123/99/20 122/100/20 134/92/23 135/91/23
f 119/101/19 118/102/19 130/96/22 131/95/22
f 115/103/17 114/104/17 126/98/21 127/97/21
f 96/36/16 29/35/16 28/105/5 76/106/5
f 111/107/15 110/108/15 122/100/20 123/99/20
f 103/109/12 102/110/12 118/102/19 119/101/19
f 99/76/18 98/75/18 114/104/17 115/103/17
f 95/48/16 94/47/16 110/108/15 111/107/15
f 91/72/14 90/71/14 106/111/10 107/112/10
f 87/68/13 86/67/13 102/110/12 103/109/12
f 155/86/11 154/85/11 79/113/8 78/114/8
f 107/112/10 106/111/10 71/115/6 70/116/6
f 151/90/9 150/89/9 63/117/4 62/118/4
f 77/119/8 42/120/8 41/64/11 156/63/11
f 69/121/6 27/122/6 52/30/10 108/29/10
f 61/123/4 49/124/4 48/62/9 152/61/9
f 8/4/2 56/3/2 145/125/26 7/126/26
f 78/114/8 79/113/8 82/74/7 83/73/7
f 62/118/4 63/117/4 66/70/3 67/69/3
f 54/127/2 55/128/2 58/66/1 59/65/1
f 15/24/11 153/23/11 141/129/25 14/130/25
f 22/18/9 149/17/9 137/131/24 21/132/24
f 7/126/26 145/125/26 133/133/23 6/134/23
f 14/130/25 141/129/25 129/135/22 13/136/22
f 21/132/24 137/131/24 125/137/21 20/138/21
f 6/134/23 133/133/23 121/139/20 5/140/20
f 13/136/22 129/135/22 117/141/19 12/142/19
f 20/138/21 125/137/21 113/143/17 19/144/17
f 5/140/20 121/139/20 109/145/15 4/146/15
f 70/147/6 71/148/6 74/46/5 75/45/5
f 12/142/19 117/141/19 101/149/12 11/150/12
f 19/144/17 113/143/17 97/151/18 18/152/18
f 4/146/15 109/145/15 93/153/16 3/154/16
f 26/22/10 105/21/10 89/155/14 25/156/14
f 11/150/12 101/149/12 85/157/13 10/158/13
f 18/152/18 97/151/18 81/14/7 17/13/7
f 3/154/16 93/153/16 73/10/5 2/9/5
f 25/156/14 89/155/14 65/6/3 24/5/3
f 10/158/13 85/157/13 57/2/1 9/1/1
f 84/78/7 43/77/7 42/120/8 77/119/8
f 76/106/5 28/105/5 27/159/6 69/160/6
f 68/80/3 50/79/3 49/124/4 61/123/4
f 60/82/1 35/81/1 34/161/2 53/162/2
f 147/94/26 146/93/26 55/128/2 54/127/2
f 259/163/27 155/164/28 78/165/29 182/166/30
f 182/166/30 78/165/29 83/167/31 187/168/32
f 183/169/33 79/170/34 154/171/35 258/172/36
f 186/173/37 82/174/38 79/170/34 183/169/33
f 255/175/39 151/176/40 62/177/41 166/178/42
f 166/178/42 62/177/41 67/179/43 171/180/44
f 167/181/45 63/182/46 150/183/47 254/184/48
f 170/185/49 66/186/50 63/182/46 167/181/45
f 251/187/51 147/188/52 54/189/53 158/190/54
f 158/190/54 54/189/53 59/191/55 163/192/56
f 159/193/57 55/194/58 146/195/59 250/196/60
f 162/197/61 58/198/62 55/194/58 159/193/57
f 247/199/63 143/200/64 155/164/28 259/163/27
f 258/172/36 154/171/35 142/201/65 246/202/66
f 144/203/67 248/204/68 260/205/69 156/206/70
f 243/207/71 139/208/72 151/176/40 255/175/39
f 153/209/73 257/210/74 245/211/75 141/212/76
f 254/184/48 150/183/47 138/213/77 242/214/78
f 140/215/79 244/216/80 256/217/81 152/218/82
f 239/219/83 135/220/84 147/188/52 251/187/51
f 149/221/85 253/222/86 241/223/87 137/224/88
f 250/196/60 146/195/59 134/225/89 238/226/90
f 136/227/91 240/228/92 252/229/93 148/230/94
f 235/231/95 131/232/96 143/200/64 247/199/63
f 145/233/97 249/234/98 237/235/99 133/236/100
f 246/202/66 142/201/65 130/237/101 234/238/102
f 132/239/103 236/240/104 248/204/68 144/203/67
f 231/241/105 127/242/106 139/208/72 243/207/71
f 141/212/76 245/211/75 233/243/107 129/244/108
f 242/214/78 138/213/77 126/245/109 230/246/110
f 128/247/111 232/248/112 244/216/80 140/215/79
f 227/249/113 123/250/114 135/220/84 239/219/83
f 137/224/88 241/223/87 229/251/115 125/252/116
f 238/226/90 134/225/89 122/253/117 226/254/118
f 124/255/119 228/256/120 240/228/92 136/227/91
f 223/257/121 119/258/122 131/232/96 235/231/95
f 133/236/100 237/235/99 225/259/123 121/260/124
f 234/238/102 130/237/101 118/261/125 222/262/126
f 120/263/127 224/264/128 236/240/104 132/239/103
f 219/265/129 115/266/130 127/242/106 231/241/105
f 129/244/108 233/243/107 221/267/131 117/268/132
f 230/246/110 126/245/109 114/269/133 218/270/134
f 116/271/135 220/272/136 232/248/112 128/247/111
f 215/273/137 111/274/138 123/250/114 227/249/113
f 125/252/116 229/251/115 217/275/139 113/276/140
f 226/254/118 122/253/117 110/277/141 214/278/142
f 112/279/143 216/280/144 228/256/120 124/255/119
f 211/281/145 107/282/146 70/283/147 174/284/148
f 174/285/148 70/286/147 75/287/149 179/288/150
f 175/289/151 71/290/152 106/291/153 210/292/154
f 178/293/155 74/294/156 71/295/152 175/296/151
f 207/297/157 103/298/158 119/258/122 223/257/121
f 121/260/124 225/259/123 213/299/159 109/300/160
f 222/262/126 118/261/125 102/301/161 206/302/162
f 104/303/163 208/304/164 224/264/128 120/263/127
f 203/305/165 99/306/166 115/266/130 219/265/129
f 117/268/132 221/267/131 205/307/167 101/308/168
f 218/270/134 114/269/133 98/309/169 202/310/170
f 100/311/171 204/312/172 220/272/136 116/271/135
f 199/313/173 95/314/174 111/274/138 215/273/137
f 113/276/140 217/275/139 201/315/175 97/316/176
f 214/278/142 110/277/141 94/317/177 198/318/178
f 96/319/179 200/320/180 216/280/144 112/279/143
f 195/321/181 91/322/182 107/282/146 211/281/145
f 109/300/160 213/299/159 197/323/183 93/324/184
f 210/292/154 106/291/153 90/325/185 194/326/186
f 92/327/187 196/328/188 212/329/189 108/330/190
f 191/331/191 87/332/192 103/298/158 207/297/157
f 105/333/193 209/334/194 193/335/195 89/336/196
f 206/302/162 102/301/161 86/337/197 190/338/198
f 88/339/199 192/340/200 208/304/164 104/303/163
f 187/168/32 83/167/31 99/306/166 203/305/165
f 101/308/168 205/307/167 189/341/201 85/342/202
f 202/310/170 98/309/169 82/174/38 186/173/37
f 84/343/203 188/344/204 204/312/172 100/311/171
f 179/288/150 75/287/149 95/314/174 199/313/173
f 77/345/205 181/346/206 188/344/204 84/343/203
f 198/318/178 94/317/177 74/294/156 178/293/155
f 76/347/207 180/348/208 200/320/180 96/319/179
f 171/180/44 67/179/43 91/322/182 195/321/181
f 69/349/209 173/350/210 180/348/208 76/347/207
f 194/326/186 90/325/185 66/186/50 170/185/49
f 68/351/211 172/352/212 196/328/188 92/327/187
f 163/192/56 59/191/55 87/332/192 191/331/191
f 61/353/213 165/354/214 172/352/212 68/351/211
f 190/338/198 86/337/197 58/198/62 162/197/61
f 60/355/215 164/356/216 192/340/200 88/339/199
f 156/206/70 260/205/69 181/346/206 77/345/205
f 81/357/217 185/358/218 184/359/219 80/360/220
f 80/360/220 184/359/219 257/210/74 153/209/73
f 97/316/176 201/315/175 185/358/218 81/357/217
f 108/330/190 212/329/189 173/361/210 69/362/209
f 73/363/221 177/364/222 176/365/223 72/366/224
f 72/367/224 176/368/223 209/334/194 105/333/193
f 93/324/184 197/323/183 177/364/222 73/363/221
f 152/218/82 256/217/81 165/354/214 61/353/213
f 65/369/225 169/370/226 168/371/227 64/372/228
f 64/372/228 168/371/227 253/222/86 149/221/85
f 89/336/196 193/335/195 169/370/226 65/369/225
f 148/230/94 252/229/93 157/373/229 53/374/230
f 57/375/231 161/376/232 160/377/233 56/378/234
f 56/378/234 160/377/233 249/234/98 145/233/97
f 85/342/202 189/341/201 161/376/232 57/375/231
f 53/162/2 34/161/2 33/60/26 148/59/26
f 261/379/8 181/346/206 260/205/69 262/380/11
f 287/381/11 257/210/74 184/359/219 288/382/8
f 263/383/4 165/354/214 256/217/81 264/384/9
f 289/385/9 253/222/86 168/371/227 290/386/4
f 265/387/2 157/373/229 252/229/93 266/388/26
f 291/389/26 249/234/98 160/377/233 292/390/2
f 262/380/11 260/205/69 248/204/68 267/391/25
f 293/392/25 245/211/75 257/210/74 287/381/11
f 264/384/9 256/217/81 244/216/80 268/393/24
f 294/394/24 241/223/87 253/222/86 289/385/9
f 266/388/26 252/229/93 240/228/92 269/395/23
f 295/396/23 237/235/99 249/234/98 291/389/26
f 267/391/25 248/204/68 236/240/104 270/397/22
f 296/398/22 233/243/107 245/211/75 293/392/25
f 268/393/24 244/216/80 232/248/112 271/399/21
f 297/400/21 229/251/115 241/223/87 294/394/24
f 269/395/23 240/228/92 228/256/120 272/401/20
f 298/402/20 225/259/123 237/235/99 295/396/23
f 270/397/22 236/240/104 224/264/128 273/403/19
f 299/404/19 221/267/131 233/243/107 296/398/22
f 271/399/21 232/248/112 220/272/136 274/405/17
f 300/406/17 217/275/139 229/251/115 297/400/21
f 272/401/20 228/256/120 216/280/144 275/407/15
f 301/408/15 213/299/159 225/259/123 298/402/20
f 276/409/6 173/361/210 212/329/189 277/410/10
f 302/411/10 209/334/194 176/368/223 303/412/6
f 273/403/19 224/264/128 208/304/164 278/413/12
f 304/414/12 205/307/167 221/267/131 299/404/19
f 274/405/17 220/272/136 204/312/172 279/415/18
f 305/416/18 201/315/175 217/275/139 300/406/17
f 275/407/15 216/280/144 200/320/180 280/417/16
f 306/418/16 197/323/183 213/299/159 301/408/15
f 277/410/10 212/329/189 196/328/188 281/419/14
f 307/420/14 193/335/195 209/334/194 302/411/10
f 278/413/12 208/304/164 192/340/200 282/421/13
f 308/422/13 189/341/201 205/307/167 304/414/12
f 279/415/18 204/312/172 188/344/204 283/423/7
f 309/424/7 185/358/218 201/315/175 305/416/18
f 280/417/16 200/320/180 180/348/208 284/425/5
f 310/426/5 177/364/222 197/323/183 306/418/16
f 281/419/14 196/328/188 172/352/212 285/427/3
f 311/428/3 169/370/226 193/335/195 307/420/14
f 282/421/13 192/340/200 164/356/216 286/429/1
f 312/430/1 161/376/232 189/341/201 308/422/13
f 283/423/7 188/344/204 181/346/206 261/379/8
f 288/382/8 184/359/219 185/358/218 309/424/7
f 284/425/5 180/348/208 173/350/210 276/431/6
f 303/432/6 176/365/223 177/364/222 310/426/5
f 285/427/3 172/352/212 165/354/214 263/383/4
f 290/386/4 168/371/227 169/370/226 311/428/3
f 286/429/1 164/356/216 157/373/229 265/387/2
f 292/390/2 160/377/233 161/376/232 312/430/1
f 53/374/230 157/373/229 164/356/216 60/355/215
f 163/192/56 286/429/1 265/387/2 158/190/54
f 171/180/44 285/427/3 263/383/4 166/178/42
f 179/288/150 284/425/5 276/431/6 174/285/148
f 187/168/32 283/423/7 261/379/8 182/166/30
f 191/331/191 282/421/13 286/429/1 163/192/56
f 195/321/181 281/419/14 285/427/3 171/180/44
f 199/313/173 280/417/16 284/425/5 179/288/150
f 203/305/165 279/415/18 283/423/7 187/168/32
f 207/297/157 278/413/12 282/421/13 191/331/191
f 211/281/145 277/410/10 281/419/14 195/321/181
f 215/273/137 275/407/15 280/417/16 199/313/173
f 219/265/129 274/405/17 279/415/18 203/305/165
f 223/257/121 273/403/19 278/413/12 207/297/157
f 174/284/148 276/409/6 277/410/10 211/281/145
f 227/249/113 272/401/20 275/407/15 215/273/137
f 231/241/105 271/399/21 274/405/17 219/265/129
f 235/231/95 270/397/22 273/403/19 223/257/121
f 239/219/83 269/395/23 272/401/20 227/249/113
f 243/207/71 268/393/24 271/399/21 231/241/105
f 247/199/63 267/391/25 270/397/22 235/231/95
f 251/187/51 266/388/26 269/395/23 239/219/83
f 255/175/39 264/384/9 268/393/24 243/207/71
f 259/163/27 262/380/11 267/391/25 247/199/63
f 158/190/54 265/387/2 266/388/26 251/187/51
f 166/178/42 263/383/4 264/384/9 255/175/39
f 182/166/30 261/379/8 262/380/11 259/163/27
f 159/193/57 292/390/2 312/430/1 162/197/61
f 167/181/45 290/386/4 311/428/3 170/185/49
f 175/296/151 303/432/6 310/426/5 178/293/155
f 183/169/33 288/382/8 309/424/7 186/173/37
f 162/197/61 312/430/1 308/422/13 190/338/198
f 170/185/49 311/428/3 307/420/14 194/326/186
f 178/293/155 310/426/5 306/418/16 198/318/178
f 186/173/37 309/424/7 305/416/18 202/310/170
f 190/338/198 308/422/13 304/414/12 206/302/162
f 194/326/186 307/420/14 302/411/10 210/292/154
f 198/318/178 306/418/16 301/408/15 214/278/142
f 202/310/170 305/416/18 300/406/17 218/270/134
f 206/302/162 304/414/12 299/404/19 222/262/126
f 210/292/154 302/411/10 303/412/6 175/289/151
f 214/278/142 301/408/15 298/402/20 226/254/118
f 218/270/134 300/406/17 297/400/21 230/246/110
f 222/262/126 299/404/19 296/398/22 234/238/102
f 226/254/118 298/402/20 295/396/23 238/226/90
f 230/246/110 297/400/21 294/394/24 242/214/78
f 234/238/102 296/398/22 293/392/25 246/202/66
f 238/226/90 295/396/23 291/389/26 250/196/60
f 242/214/78 294/394/24 289/385/9 254/184/48
f 246/202/66 293/392/25 287/381/11 258/172/36
f 250/196/60 291/389/26 292/390/2 159/193/57
f 254/184/48 289/385/9 290/386/4 167/181/45
f 258/172/36 287/381/11 288/382/8 183/169/33
f 732/433/235 44/434/236 45/435/237 734/436/238
f 718/437/239 37/438/240 38/439/241 720/440/242
f 704/441/243 30/442/244 31/443/245 706/444/246
f 734/436/238 45/435/237 46/445/247 736/446/248
f 720/440/242 38/439/241 39/447/249 722/448/250
f 706/444/246 31/443/245 32/449/251 708/450/252
f 736/446/248 46/445/247 47/451/253 738/452/254
f 722/448/250 39/447/249 40/453/255 724/454/256
f 702/455/257 29/456/258 30/442/244 704/441/243
f 708/450/252 32/449/251 33/457/259 710/458/260
f 738/452/254 47/451/253 48/459/261 740/460/262
f 724/454/256 40/453/255 41/461/263 726/462/264
f 710/458/260 33/457/259 34/463/265 712/464/266
f 740/460/262 48/459/261 49/465/267 742/466/268
f 726/462/264 41/461/263 42/467/269 728/468/270
f 712/464/266 34/463/265 35/469/271 714/470/272
f 742/466/268 49/465/267 50/471/273 744/472/274
f 728/468/270 42/467/269 43/473/275 730/474/276
f 714/470/272 35/469/271 36/475/277 716/476/278
f 744/472/274 50/471/273 51/477/279 746/478/280
f 730/474/276 43/473/275 44/434/236 732/433/235
f 716/476/278 36/475/277 37/438/240 718/437/239
f 746/478/280 51/477/279 52/479/281 748/480/282
f 700/481/283 28/482/284 29/456/258 702/455/257
f 729/483/285 328/484/286 327/485/287 727/486/288
f 715/487/289 321/488/290 320/489/291 713/490/292
f 745/491/293 336/492/294 335/493/295 743/494/296
f 731/495/297 329/496/298 328/484/286 729/483/285
f 717/497/299 322/498/300 321/488/290 715/487/289
f 747/499/301 337/500/302 336/492/294 745/491/293
f 703/501/303 315/502/304 314/503/305 701/504/306
f 733/505/307 330/506/308 329/496/298 731/495/297
f 719/507/309 323/508/310 322/498/300 717/497/299
f 749/509/311 338/510/312 337/500/302 747/499/301
f 705/511/313 316/512/314 315/502/304 703/501/303
f 735/513/315 331/514/316 330/506/308 733/505/307
f 721/515/317 324/516/318 323/508/310 719/507/309
f 698/517/319 313/518/320 338/519/312 749/520/311
f 707/521/321 317/522/322 316/512/314 705/511/313
f 737/523/323 332/524/324 331/514/316 735/513/315
f 723/525/325 325/526/326 324/516/318 721/515/317
f 709/527/327 318/528/328 317/522/322 707/521/321
f 739/529/329 333/530/330 332/524/324 737/523/323
f 725/531/331 326/532/332 325/526/326 723/525/325
f 711/533/333 319/534/334 318/528/328 709/527/327
f 741/535/335 334/536/336 333/530/330 739/529/329
f 727/486/288 327/485/287 326/532/332 725/531/331
f 713/490/292 320/489/291 319/534/334 711/533/333
f 743/494/296 335/493/295 334/536/336 741/535/335
f 334/536/336 360/537/337 359/538/338 333/530/330
f 327/485/287 353/539/339 352/540/340 326/532/332
f 320/489/291 346/541/341 345/542/342 319/534/334
f 335/493/295 361/543/343 360/537/337 334/536/336
f 328/484/286 354/544/344 353/539/339 327/485/287
f 321/488/290 347/545/345 346/541/341 320/489/291
f 336/492/294 362/546/346 361/543/343 335/493/295
f 314/503/305 340/547/347 339/548/348 313/518/320
f 329/496/298 355/549/349 354/544/344 328/484/286
f 322/498/300 348/550/350 347/545/345 321/488/290
f 337/500/302 363/551/351 362/546/346 336/492/294
f 315/502/304 341/552/352 340/547/347 314/503/305
f 330/506/308 356/553/353 355/549/349 329/496/298
f 323/508/310 349/554/354 348/550/350 322/498/300
f 338/510/312 364/555/355 363/551/351 337/500/302
f 316/512/314 342/556/356 341/552/352 315/502/304
f 331/514/316 357/557/357 356/553/353 330/506/308
f 324/516/318 350/558/358 349/554/354 323/508/310
f 313/518/320 339/548/348 364/559/355 338/519/312
f 317/522/322 343/560/359 342/556/356 316/512/314
f 332/524/324 358/561/360 357/557/357 331/514/316
f 325/526/326 351/562/361 350/558/358 324/516/318
f 318/528/328 344/563/362 343/560/359 317/522/322
f 333/530/330 359/538/338 358/561/360 332/524/324
f 326/532/332 352/540/340 351/562/361 325/526/326
f 319/534/334 345/542/342 344/563/362 318/528/328
f 405/564/363 372/565/24 371/566/21 403/567/364
f 435/568/365 387/569/13 386/570/1 433/571/366
f 421/572/367 380/573/16 379/574/5 419/575/368
f 407/576/369 373/577/9 372/565/24 405/564/363
f 437/578/370 388/579/12 387/569/13 435/568/365
f 423/580/371 381/581/15 380/573/16 421/572/367
f 409/582/372 374/583/4 373/577/9 407/576/369
f 439/584/373 389/585/19 388/579/12 437/578/370
f 392/586/374 365/587/25 390/588/22 441/589/375
f 425/590/376 382/591/20 381/581/15 423/580/371
f 411/592/377 375/593/3 374/583/4 409/582/372
f 441/594/375 390/595/22 389/585/19 439/584/373
f 397/596/378 368/597/7 367/598/8 395/599/379
f 427/600/380 383/601/23 382/591/20 425/590/376
f 413/602/381 376/603/14 375/593/3 411/592/377
f 399/604/382 369/605/18 368/597/7 397/596/378
f 429/606/383 384/607/26 383/601/23 427/600/380
f 415/608/384 377/609/10 376/603/14 413/602/381
f 395/599/379 367/598/8 366/610/11 393/611/385
f 401/612/386 370/613/17 369/605/18 399/604/382
f 431/614/387 385/615/2 384/607/26 429/606/383
f 417/616/388 378/617/6 377/609/10 415/608/384
f 403/567/364 371/566/21 370/613/17 401/612/386
f 433/571/366 386/570/1 385/615/2 431/614/387
f 419/575/368 379/574/5 378/617/6 417/616/388
f 679/618/389 404/619/390 402/620/391 678/621/392
f 694/622/393 434/623/394 432/624/395 693/625/396
f 687/626/397 420/627/398 418/628/399 686/629/400
f 680/630/401 406/631/402 404/619/390 679/618/389
f 695/632/403 436/633/404 434/623/394 694/622/393
f 688/634/405 422/635/406 420/627/398 687/626/397
f 681/636/407 408/637/408 406/631/402 680/630/401
f 696/638/409 438/639/410 436/633/404 695/632/403
f 672/640/411 394/641/412 391/642/413 673/643/414
f 689/644/415 424/645/416 422/635/406 688/634/405
f 682/646/417 410/647/418 408/637/408 681/636/407
f 697/648/419 440/649/420 438/639/410 696/638/409
f 675/650/421 396/651/422 394/641/412 672/640/411
f 690/652/423 426/653/424 424/645/416 689/644/415
f 683/654/425 412/655/426 410/647/418 682/646/417
f 674/656/427 442/657/428 440/649/420 697/648/419
f 676/658/429 398/659/430 396/651/422 675/650/421
f 691/660/431 428/661/432 426/653/424 690/652/423
f 684/662/433 414/663/434 412/655/426 683/654/425
f 673/643/414 391/642/413 442/664/428 674/665/427
f 677/666/435 400/667/436 398/659/430 676/658/429
f 692/668/437 430/669/438 428/661/432 691/660/431
f 685/670/439 416/671/440 414/663/434 684/662/433
f 678/621/392 402/620/391 400/667/436 677/666/435
f 693/625/396 432/624/395 430/669/438 692/668/437
f 686/629/400 418/628/399 416/671/440 685/670/439
f 394/641/412 393/611/385 392/586/374 391/642/413
f 396/651/422 395/599/379 393/611/385 394/641/412
f 398/659/430 397/596/378 395/599/379 396/651/422
f 400/667/436 399/604/382 397/596/378 398/659/430
f 402/620/391 401/612/386 399/604/382 400/667/436
f 404/619/390 403/567/364 401/612/386 402/620/391
f 406/631/402 405/564/363 403/567/364 404/619/390
f 408/637/408 407/576/369 405/564/363 406/631/402
f 410/647/418 409/582/372 407/576/369 408/637/408
f 412/655/426 411/592/377 409/582/372 410/647/418
f 414/663/434 413/602/381 411/592/377 412/655/426
f 416/671/440 415/608/384 413/602/381 414/663/434
f 418/628/399 417/616/388 415/608/384 416/671/440
f 420/627/398 419/575/368 417/616/388 418/628/399
f 422/635/406 421/572/367 419/575/368 420/627/398
f 424/645/416 423/580/371 421/572/367 422/635/406
f 426/653/424 425/590/376 423/580/371 424/645/416
f 428/661/432 427/600/380 425/590/376 426/653/424
f 430/669/438 429/606/383 427/600/380 428/661/432
f 432/624/395 431/614/387 429/606/383 430/669/438
f 434/623/394 433/571/366 431/614/387 432/624/395
f 436/633/404 435/568/365 433/571/366 434/623/394
f 438/639/410 437/578/370 435/568/365 436/633/404
f 440/649/420 439/584/373 437/578/370 438/639/410
f 442/657/428 441/594/375 439/584/373 440/649/420
f 391/642/413 392/586/374 441/589/375 442/664/428
f 393/611/385 366/610/11 365/587/25 392/586/374
f 748/672/282 52/673/281 27/674/441 699/675/442
f 375/676/443 443/677/443 374/678/443
f 390/679/443 443/677/443 389/680/443
f 368/681/443 443/677/443 367/682/443
f 383/683/443 443/677/443 382/684/443
f 376/685/443 443/677/443 375/676/443
f 365/686/443 443/677/443 390/679/443
f 369/687/443 443/677/443 368/681/443
f 384/688/443 443/677/443 383/683/443
f 377/689/443 443/677/443 376/685/443
f 370/690/443 443/677/443 369/687/443
f 385/691/443 443/677/443 384/688/443
f 378/692/443 443/677/443 377/689/443
f 371/693/443 443/677/443 370/690/443
f 386/694/443 443/677/443 385/691/443
f 379/695/443 443/677/443 378/692/443
f 372/696/443 443/677/443 371/693/443
f 387/697/443 443/677/443 386/694/443
f 380/698/443 443/677/443 379/695/443
f 373/699/443 443/677/443 372/696/443
f 388/700/443 443/677/443 387/697/443
f 366/701/443 443/677/443 365/686/443
f 381/702/443 443/677/443 380/698/443
f 374/678/443 443/677/443 373/699/443
f 389/680/443 443/677/443 388/700/443
f 367/682/443 443/677/443 366/701/443
f 382/684/443 443/677/443 381/702/443
f 701/504/306 314/503/305 313/518/320 698/517/319
f 16/703/444 512/704/444 513/705/445 17/706/445
f 467/707/446 468/708/446 547/709/446 546/710/446
f 15/711/447 511/712/447 512/704/444 16/703/444
f 467/707/446 546/710/446 545/713/446 466/714/446
f 14/715/448 510/716/448 511/712/447 15/711/447
f 545/713/446 544/717/446 465/718/446 466/714/446
f 13/719/449 509/720/449 510/716/448 14/715/448
f 544/717/446 543/721/446 464/722/446 465/718/446
f 12/723/450 508/724/450 509/720/449 13/719/449
f 543/721/446 542/725/446 463/726/446 464/722/446
f 11/727/451 507/728/451 508/724/450 12/723/450
f 542/725/446 541/729/446 462/730/446 463/726/446
f 10/731/452 506/732/452 507/728/451 11/727/451
f 541/729/446 540/733/446 461/734/446 462/730/446
f 9/735/453 505/736/453 506/732/452 10/731/452
f 540/733/446 539/737/446 460/738/446 461/734/446
f 8/739/454 504/740/454 505/736/453 9/735/453
f 539/737/446 538/741/446 459/742/446 460/738/446
f 7/743/455 503/744/455 504/740/454 8/739/454
f 538/741/446 537/745/446 458/746/446 459/742/446
f 6/747/456 502/748/456 503/744/455 7/743/455
f 537/745/446 536/749/446 457/750/446 458/746/446
f 5/751/457 501/752/457 502/748/456 6/747/456
f 536/749/446 535/753/446 456/754/446 457/750/446
f 4/755/458 500/756/458 501/752/457 5/751/457
f 535/753/446 534/757/446 455/758/446 456/754/446
f 534/757/446 533/759/446 454/760/446 455/758/446
f 469/761/446 444/762/446 524/763/446 548/764/446
f 447/765/446 448/766/446 527/767/446 526/768/446
f 448/766/446 449/769/446 528/770/446 527/767/446
f 449/769/446 450/771/446 529/772/446 528/770/446
f 450/771/446 451/773/446 530/774/446 529/772/446
f 451/773/446 452/775/446 531/776/446 530/774/446
f 452/775/446 453/777/446 532/778/446 531/776/446
f 445/779/446 446/780/446 525/781/446 523/782/446
f 453/777/446 454/760/446 533/759/446 532/778/446
f 468/708/446 469/761/446 548/764/446 547/709/446
f 446/780/446 447/765/446 526/768/446 525/781/446
f 445/783/11 471/784/11 472/785/8 446/786/8
f 460/787/15 486/788/15 487/789/20 461/790/20
f 453/791/4 479/792/4 480/793/3 454/794/3
f 468/795/19 494/796/19 495/797/22 469/798/22
f 446/786/8 472/785/8 473/799/7 447/800/7
f 461/790/20 487/789/20 488/801/23 462/802/23
f 454/794/3 480/793/3 481/803/14 455/804/14
f 469/798/22 495/797/22 470/805/25 444/806/25
f 447/800/7 473/799/7 474/807/18 448/808/18
f 462/802/23 488/801/23 489/809/26 463/810/26
f 455/804/14 481/803/14 482/811/10 456/812/10
f 448/808/18 474/807/18 475/813/17 449/814/17
f 463/810/26 489/809/26 490/815/2 464/816/2
f 456/812/10 482/811/10 483/817/6 457/818/6
f 449/814/17 475/813/17 476/819/21 450/820/21
f 464/816/2 490/815/2 491/821/1 465/822/1
f 457/818/6 483/817/6 484/823/5 458/824/5
f 450/820/21 476/819/21 477/825/24 451/826/24
f 465/822/1 491/821/1 492/827/13 466/828/13
f 458/824/5 484/823/5 485/829/16 459/830/16
f 451/826/24 477/825/24 478/831/9 452/832/9
f 466/828/13 492/827/13 493/833/12 467/834/12
f 444/835/25 470/836/25 471/784/11 445/783/11
f 459/830/16 485/829/16 486/788/15 460/787/15
f 452/832/9 478/831/9 479/792/4 453/791/4
f 467/834/12 493/833/12 494/796/19 468/795/19
f 493/837/446 496/838/446 494/839/446
f 471/840/446 496/838/446 472/841/446
f 486/842/446 496/838/446 487/843/446
f 479/844/446 496/838/446 480/845/446
f 494/839/446 496/838/446 495/846/446
f 472/841/446 496/838/446 473/847/446
f 487/843/446 496/838/446 488/848/446
f 480/845/446 496/838/446 481/849/446
f 495/846/446 496/838/446 470/850/446
f 473/847/446 496/838/446 474/851/446
f 488/848/446 496/838/446 489/852/446
f 481/849/446 496/838/446 482/853/446
f 474/851/446 496/838/446 475/854/446
f 489/852/446 496/838/446 490/855/446
f 482/853/446 496/838/446 483/856/446
f 475/854/446 496/838/446 476/857/446
f 490/855/446 496/838/446 491/858/446
f 483/856/446 496/838/446 484/859/446
f 476/857/446 496/838/446 477/860/446
f 491/858/446 496/838/446 492/861/446
f 484/859/446 496/838/446 485/862/446
f 477/860/446 496/838/446 478/863/446
f 492/861/446 496/838/446 493/837/446
f 470/850/446 496/838/446 471/840/446
f 485/862/446 496/838/446 486/842/446
f 478/863/446 496/838/446 479/844/446
f 502/748/23 528/864/23 529/865/26 503/744/26
f 517/866/24 543/867/24 544/868/9 518/869/9
f 510/716/25 536/870/25 537/871/11 511/712/11
f 503/744/26 529/865/26 530/872/2 504/740/2
f 518/869/9 544/868/9 545/873/4 519/874/4
f 511/712/11 537/871/11 538/875/8 512/704/8
f 504/740/2 530/872/2 531/876/1 505/736/1
f 519/874/4 545/873/4 546/877/3 520/878/3
f 498/879/6 524/880/6 523/881/5 497/882/5
f 512/704/8 538/875/8 539/883/7 513/705/7
f 505/736/1 531/876/1 532/884/13 506/732/13
f 520/878/3 546/877/3 547/885/14 521/886/14
f 497/882/5 523/881/5 525/887/16 499/888/16
f 513/705/7 539/883/7 540/889/18 514/890/18
f 506/732/13 532/884/13 533/891/12 507/728/12
f 521/886/14 547/885/14 548/892/10 522/893/10
f 499/888/16 525/887/16 526/894/15 500/756/15
f 514/890/18 540/889/18 541/895/17 515/896/17
f 507/728/12 533/891/12 534/897/19 508/724/19
f 522/893/10 548/892/10 524/898/6 498/899/6
f 500/756/15 526/894/15 527/900/20 501/752/20
f 515/896/17 541/895/17 542/901/21 516/902/21
f 508/724/19 534/897/19 535/903/22 509/720/22
f 501/752/20 527/900/20 528/864/23 502/748/23
f 516/902/21 542/901/21 543/867/24 517/866/24
f 509/720/22 535/903/22 536/870/25 510/716/25
f 17/706/445 513/705/445 514/890/459 18/904/459
f 18/904/459 514/890/459 515/896/460 19/905/460
f 19/905/460 515/896/460 516/902/461 20/906/461
f 20/906/461 516/902/461 517/866/462 21/907/462
f 21/907/462 517/866/462 518/869/463 22/908/463
f 22/908/463 518/869/463 519/874/464 23/909/464
f 23/909/464 519/874/464 520/878/465 24/910/465
f 24/910/465 520/878/465 521/886/466 25/911/466
f 25/911/466 521/886/466 522/893/467 26/912/467
f 26/912/467 522/893/467 498/899/468 1/913/468
f 1/914/468 498/879/468 497/882/469 2/915/469
f 2/915/469 497/882/469 499/888/470 3/916/470
f 3/916/470 499/888/470 500/756/458 4/755/458
f 444/762/446 445/779/446 523/782/446 524/763/446
f 553/917/471 665/918/472 568/919/473 552/920/474
f 561/921/475 576/922/476 575/923/477 560/924/478
f 562/925/479 577/926/480 576/927/476 561/928/475
f 555/929/481 570/930/482 569/931/483 554/932/484
f 563/933/485 578/934/486 577/926/480 562/925/479
f 556/935/487 571/936/488 570/930/482 555/929/481
f 564/937/489 579/938/490 578/934/486 563/933/485
f 557/939/25 572/940/491 571/936/488 556/935/487
f 550/941/492 566/942/493 565/943/494 549/944/6
f 549/944/6 565/943/494 579/938/490 564/937/489
f 558/945/495 573/946/496 572/940/491 557/939/25
f 551/947/497 567/948/498 566/942/493 550/941/492
f 559/949/499 574/950/500 573/946/496 558/945/495
f 552/920/474 568/919/473 567/948/498 551/947/497
f 560/924/478 575/923/477 574/950/500 559/949/499
f 574/950/500 590/951/501 589/952/502 573/946/496
f 568/919/473 583/953/503 582/954/504 567/948/498
f 575/923/477 591/955/505 590/951/501 574/950/500
f 665/918/472 584/956/506 583/953/503 568/919/473
f 576/922/476 592/957/507 591/955/505 575/923/477
f 577/926/480 593/958/508 592/959/507 576/927/476
f 570/930/482 586/960/509 585/961/510 569/931/483
f 578/934/486 594/962/511 593/958/508 577/926/480
f 571/936/488 587/963/512 586/960/509 570/930/482
f 579/938/490 595/964/513 594/962/511 578/934/486
f 572/940/491 588/965/514 587/963/512 571/936/488
f 566/942/493 581/966/515 580/967/516 565/943/494
f 565/943/494 580/967/516 595/964/513 579/938/490
f 573/946/496 589/952/502 588/965/514 572/940/491
f 567/948/498 582/954/504 581/966/515 566/942/493
f 595/964/513 611/968/517 610/969/518 594/962/511
f 588/965/514 604/970/519 603/971/520 587/963/512
f 581/966/515 597/972/521 596/973/522 580/967/516
f 580/967/516 596/973/522 611/968/517 595/964/513
f 589/952/502 605/974/523 604/970/519 588/965/514
f 582/954/504 598/975/524 597/972/521 581/966/515
f 590/951/501 606/976/525 605/974/523 589/952/502
f 583/953/503 599/977/526 598/975/524 582/954/504
f 591/955/505 607/978/527 606/976/525 590/951/501
f 584/956/506 600/979/528 599/977/526 583/953/503
f 592/957/507 608/980/529 607/978/527 591/955/505
f 593/958/508 609/981/530 608/982/529 592/959/507
f 586/960/509 602/983/531 601/984/532 585/961/510
f 594/962/511 610/969/518 609/981/530 593/958/508
f 587/963/512 603/971/520 602/983/531 586/960/509
f 636/985/533 616/986/534 615/987/535 635/988/536
f 638/989/537 658/990/538 657/991/539 637/992/540
f 639/993/541 617/994/542 616/986/534 636/985/533
f 640/995/543 659/996/544 658/990/538 638/989/537
f 641/997/545 660/998/546 617/994/542 639/993/541
f 642/999/547 661/1000/548 659/996/544 640/995/543
f 644/1001/549 613/1002/550 612/1003/551 643/1004/552
f 643/1004/552 612/1003/551 660/998/546 641/997/545
f 645/1005/553 662/1006/554 661/1000/548 642/999/547
f 646/1007/555 654/1008/556 613/1002/550 644/1001/549
f 647/1009/557 614/1010/558 662/1006/554 645/1005/553
f 648/1011/559 655/1012/560 654/1008/556 646/1007/555
f 649/1013/561 656/1014/562 614/1010/558 647/1009/557
f 667/1015/563 666/1016/564 655/1012/560 648/1011/559
f 635/988/536 615/987/535 656/1014/562 649/1013/561
f 655/1017/560 621/1018/565 620/1019/566 654/1020/556
f 656/1021/562 629/1022/567 628/1023/568 614/1024/558
f 666/1025/564 622/1026/569 621/1018/565 655/1017/560
f 615/1027/535 630/1028/570 629/1022/567 656/1021/562
f 616/1029/534 631/1030/571 630/1028/570 615/1027/535
f 658/1031/538 624/1032/572 623/1033/573 657/1034/539
f 617/1035/542 632/1036/574 631/1030/571 616/1029/534
f 659/1037/544 625/1038/575 624/1032/572 658/1031/538
f 660/1039/546 633/1040/576 632/1036/574 617/1035/542
f 661/1041/548 626/1042/577 625/1038/575 659/1037/544
f 613/1043/550 619/1044/578 618/1045/579 612/1046/551
f 612/1046/551 618/1045/579 633/1040/576 660/1039/546
f 662/1047/554 627/1048/580 626/1042/577 661/1041/548
f 654/1020/556 620/1019/566 619/1044/578 613/1043/550
f 614/1024/558 628/1023/568 627/1048/580 662/1047/554
f 626/1049/443 634/1050/443 625/1051/443
f 619/1052/443 634/1050/443 618/1053/443
f 618/1053/443 634/1050/443 633/1054/443
f 627/1055/443 634/1050/443 626/1049/443
f 620/1056/443 634/1050/443 619/1052/443
f 628/1057/443 634/1050/443 627/1055/443
f 621/1058/443 634/1050/443 620/1056/443
f 629/1059/443 634/1050/443 628/1057/443
f 622/1060/443 634/1050/443 621/1058/443
f 630/1061/443 634/1050/443 629/1059/443
f 623/1062/443 634/1050/443 622/1060/443
f 631/1063/443 634/1050/443 630/1061/443
f 624/1064/443 634/1050/443 623/1062/443
f 632/1065/443 634/1050/443 631/1063/443
f 625/1051/443 634/1050/443 624/1064/443
f 633/1054/443 634/1050/443 632/1065/443
f 608/1066/529 635/988/536 649/1013/561 607/1067/527
f 600/1068/528 667/1015/563 648/1011/559 599/1069/526
f 607/1067/527 649/1013/561 647/1009/557 606/1070/525
f 599/1069/526 648/1011/559 646/1007/555 598/1071/524
f 606/1070/525 647/1009/557 645/1005/553 605/1072/523
f 598/1071/524 646/1007/555 644/1001/549 597/1073/521
f 605/1072/523 645/1005/553 642/999/547 604/1074/519
f 596/1075/522 643/1004/552 641/997/545 611/1076/517
f 597/1073/521 644/1001/549 643/1004/552 596/1075/522
f 604/1074/519 642/999/547 640/995/543 603/1077/520
f 611/1076/517 641/997/545 639/993/541 610/1078/518
f 603/1077/520 640/995/543 638/989/537 602/1079/531
f 610/1078/518 639/993/541 636/985/533 609/1080/530
f 602/1079/531 638/989/537 637/992/540 601/1081/532
f 609/1080/530 636/985/533 635/988/536 608/1066/529
f 657/1082/539 664/1083/581 650/1084/582
f 666/1085/564 663/1086/583 653/1087/584 622/1088/585
f 669/1089/586 653/1087/584 663/1086/583 671/1090/587
f 666/1085/564 651/1091/588 663/1086/583
f 623/1092/589 652/1093/590 664/1083/581 657/1082/539
f 601/1081/532 637/992/540 667/1015/563 600/1068/528
f 637/992/540 657/991/539 666/1016/564 667/1015/563
f 585/961/510 601/984/532 600/979/528 584/956/506
f 569/931/483 585/961/510 584/956/506 665/918/472
f 554/932/484 569/931/483 665/918/472 553/917/471
f 671/1090/587 663/1086/583 651/1091/588 670/1094/591
f 664/1083/581 671/1095/587 670/1096/591 650/1084/582
f 652/1093/590 669/1097/586 671/1095/587 664/1083/581
f 651/1091/588 668/1098/592 670/1094/591
f 668/1098/592 650/1084/582 670/1096/591
f 650/1084/582 668/1098/592 657/1082/539
f 666/1085/564 657/1082/539 668/1098/592
f 651/1091/588 666/1085/564 668/1098/592
f 352/540/340 686/629/400 685/670/439 351/562/361
f 359/538/338 693/625/396 692/668/437 358/561/360
f 344/563/362 678/621/392 677/666/435 343/560/359
f 351/562/361 685/670/439 684/662/433 350/558/358
f 358/561/360 692/668/437 691/660/431 357/557/357
f 343/560/359 677/666/435 676/658/429 342/556/356
f 339/548/348 673/643/414 674/665/427 364/559/355
f 350/558/358 684/662/433 683/654/425 349/554/354
f 357/557/357 691/660/431 690/652/423 356/553/353
f 342/556/356 676/658/429 675/650/421 341/552/352
f 364/555/355 674/656/427 697/648/419 363/551/351
f 349/554/354 683/654/425 682/646/417 348/550/350
f 356/553/353 690/652/423 689/644/415 355/549/349
f 341/552/352 675/650/421 672/640/411 340/547/347
f 363/551/351 697/648/419 696/638/409 362/546/346
f 348/550/350 682/646/417 681/636/407 347/545/345
f 355/549/349 689/644/415 688/634/405 354/544/344
f 340/547/347 672/640/411 673/643/414 339/548/348
f 362/546/346 696/638/409 695/632/403 361/543/343
f 347/545/345 681/636/407 680/630/401 346/541/341
f 354/544/344 688/634/405 687/626/397 353/539/339
f 361/543/343 695/632/403 694/622/393 360/537/337
f 346/541/341 680/630/401 679/618/389 345/542/342
f 353/539/339 687/626/397 686/629/400 352/540/340
f 360/537/337 694/622/393 693/625/396 359/538/338
f 345/542/342 679/618/389 678/621/392 344/563/362
f 699/675/442 700/481/283 701/504/306 698/517/319
f 700/481/283 702/455/257 703/501/303 701/504/306
f 702/455/257 704/441/243 705/511/313 703/501/303
f 704/441/243 706/444/246 707/521/321 705/511/313
f 706/444/246 708/450/252 709/527/327 707/521/321
f 708/450/252 710/458/260 711/533/333 709/527/327
f 710/458/260 712/464/266 713/490/292 711/533/333
f 712/464/266 714/470/272 715/487/289 713/490/292
f 714/470/272 716/476/278 717/497/299 715/487/289
f 716/476/278 718/437/239 719/507/309 717/497/299
f 718/437/239 720/440/242 721/515/317 719/507/309
f 720/440/242 722/448/250 723/525/325 721/515/317
f 722/448/250 724/454/256 725/531/331 723/525/325
f 724/454/256 726/462/264 727/486/288 725/531/331
f 726/462/264 728/468/270 729/483/285 727/486/288
f 728/468/270 730/474/276 731/495/297 729/483/285
f 730/474/276 732/433/235 733/505/307 731/495/297
f 732/433/235 734/436/238 735/513/315 733/505/307
f 734/436/238 736/446/248 737/523/323 735/513/315
f 736/446/248 738/452/254 739/529/329 737/523/323
f 738/452/254 740/460/262 741/535/335 739/529/329
f 740/460/262 742/466/268 743/494/296 741/535/335
f 742/466/268 744/472/274 745/491/293 743/494/296
f 744/472/274 746/478/280 747/499/301 745/491/293
f 746/478/280 748/480/282 749/509/311 747/499/301
f 748/672/282 699/675/442 698/517/319 749/520/311
f 699/675/442 27/674/441 28/482/284 700/481/283
